<mxfile host="65bd71144e">
    <diagram id="K6cNVW0UyiJfItIggO8u" name="Page-1">
        <mxGraphModel dx="3311" dy="3063" grid="1" gridSize="10" guides="1" tooltips="1" connect="1" arrows="1" fold="1" page="0" pageScale="1" pageWidth="850" pageHeight="1100" math="0" shadow="0">
            <root>
                <mxCell id="0"/>
                <mxCell id="1" parent="0"/>
                <mxCell id="260" style="edgeStyle=orthogonalEdgeStyle;html=1;" edge="1" parent="1" source="2" target="73">
                    <mxGeometry relative="1" as="geometry">
                        <Array as="points">
                            <mxPoint x="1300" y="-220"/>
                            <mxPoint x="1300" y="60"/>
                        </Array>
                    </mxGeometry>
                </mxCell>
                <mxCell id="2" value="&lt;b&gt;GlobalModelGenerator&lt;/b&gt;" style="swimlane;fontStyle=0;align=center;verticalAlign=top;childLayout=stackLayout;horizontal=1;startSize=30;horizontalStack=0;resizeParent=1;resizeParentMax=0;resizeLast=0;collapsible=0;marginBottom=0;html=1;" vertex="1" parent="1">
                    <mxGeometry x="360" y="-560" width="892" height="398" as="geometry"/>
                </mxCell>
                <mxCell id="4" value="#localModels: LocalModels*" style="text;html=1;strokeColor=none;fillColor=none;align=left;verticalAlign=middle;spacingLeft=4;spacingRight=4;overflow=hidden;rotatable=0;points=[[0,0.5],[1,0.5]];portConstraint=eastwest;" vertex="1" parent="2">
                    <mxGeometry y="30" width="892" height="20" as="geometry"/>
                </mxCell>
                <mxCell id="13" value="#formula: Formula*" style="text;html=1;strokeColor=none;fillColor=none;align=left;verticalAlign=middle;spacingLeft=4;spacingRight=4;overflow=hidden;rotatable=0;points=[[0,0.5],[1,0.5]];portConstraint=eastwest;" vertex="1" parent="2">
                    <mxGeometry y="50" width="892" height="20" as="geometry"/>
                </mxCell>
                <mxCell id="15" value="#globalModel: GlobalModel" style="text;html=1;strokeColor=none;fillColor=none;align=left;verticalAlign=middle;spacingLeft=4;spacingRight=4;overflow=hidden;rotatable=0;points=[[0,0.5],[1,0.5]];portConstraint=eastwest;" vertex="1" parent="2">
                    <mxGeometry y="70" width="892" height="20" as="geometry"/>
                </mxCell>
                <mxCell id="7" value="" style="line;strokeWidth=1;fillColor=none;align=left;verticalAlign=middle;spacingTop=-1;spacingLeft=3;spacingRight=3;rotatable=0;labelPosition=right;points=[];portConstraint=eastwest;" vertex="1" parent="2">
                    <mxGeometry y="90" width="892" height="8" as="geometry"/>
                </mxCell>
                <mxCell id="17" value="+GlobalModelGenerator()" style="text;html=1;strokeColor=none;fillColor=none;align=left;verticalAlign=middle;spacingLeft=4;spacingRight=4;overflow=hidden;rotatable=0;points=[[0,0.5],[1,0.5]];portConstraint=eastwest;" vertex="1" parent="2">
                    <mxGeometry y="98" width="892" height="20" as="geometry"/>
                </mxCell>
                <mxCell id="18" value="+~GlobalModelGenerator()" style="text;html=1;strokeColor=none;fillColor=none;align=left;verticalAlign=middle;spacingLeft=4;spacingRight=4;overflow=hidden;rotatable=0;points=[[0,0.5],[1,0.5]];portConstraint=eastwest;" vertex="1" parent="2">
                    <mxGeometry y="118" width="892" height="20" as="geometry"/>
                </mxCell>
                <mxCell id="21" value="+initModel(localModels: LocalModels*, formula: Formula*): GlobalState*" style="text;html=1;strokeColor=none;fillColor=none;align=left;verticalAlign=middle;spacingLeft=4;spacingRight=4;overflow=hidden;rotatable=0;points=[[0,0.5],[1,0.5]];portConstraint=eastwest;" vertex="1" parent="2">
                    <mxGeometry y="138" width="892" height="20" as="geometry"/>
                </mxCell>
                <mxCell id="19" value="+expandState(state: GlobalState*): void" style="text;html=1;strokeColor=none;fillColor=none;align=left;verticalAlign=middle;spacingLeft=4;spacingRight=4;overflow=hidden;rotatable=0;points=[[0,0.5],[1,0.5]];portConstraint=eastwest;" vertex="1" parent="2">
                    <mxGeometry y="158" width="892" height="20" as="geometry"/>
                </mxCell>
                <mxCell id="23" value="+expandAllStates(): void" style="text;html=1;strokeColor=none;fillColor=none;align=left;verticalAlign=middle;spacingLeft=4;spacingRight=4;overflow=hidden;rotatable=0;points=[[0,0.5],[1,0.5]];portConstraint=eastwest;" vertex="1" parent="2">
                    <mxGeometry y="178" width="892" height="20" as="geometry"/>
                </mxCell>
                <mxCell id="22" value="+getCurrentGlobalModel(): GlobalModel*" style="text;html=1;strokeColor=none;fillColor=none;align=left;verticalAlign=middle;spacingLeft=4;spacingRight=4;overflow=hidden;rotatable=0;points=[[0,0.5],[1,0.5]];portConstraint=eastwest;" vertex="1" parent="2">
                    <mxGeometry y="198" width="892" height="20" as="geometry"/>
                </mxCell>
                <mxCell id="25" value="+getFormula(): Formula*" style="text;html=1;strokeColor=none;fillColor=none;align=left;verticalAlign=middle;spacingLeft=4;spacingRight=4;overflow=hidden;rotatable=0;points=[[0,0.5],[1,0.5]];portConstraint=eastwest;" vertex="1" parent="2">
                    <mxGeometry y="218" width="892" height="20" as="geometry"/>
                </mxCell>
                <mxCell id="24" value="#generateInitState(): GlobalState*" style="text;html=1;strokeColor=none;fillColor=none;align=left;verticalAlign=middle;spacingLeft=4;spacingRight=4;overflow=hidden;rotatable=0;points=[[0,0.5],[1,0.5]];portConstraint=eastwest;" vertex="1" parent="2">
                    <mxGeometry y="238" width="892" height="20" as="geometry"/>
                </mxCell>
                <mxCell id="26" value="#generateStateFromLocalStates(localStates: set&amp;lt;LocalState*&amp;gt;*, viaLocalTransitions: set&amp;lt;LocalTransition*&amp;gt;*, prevGlobalState: GlobalState*): GlobalState*" style="text;html=1;strokeColor=none;fillColor=none;align=left;verticalAlign=middle;spacingLeft=4;spacingRight=4;overflow=hidden;rotatable=0;points=[[0,0.5],[1,0.5]];portConstraint=eastwest;" vertex="1" parent="2">
                    <mxGeometry y="258" width="892" height="20" as="geometry"/>
                </mxCell>
                <mxCell id="28" value="#generateGlobalTransitions(fromGlobalState: GlobalState*, localTransitions: set&amp;lt;LocalTransition*&amp;gt;, transitionsByAgent: map&amp;lt;Agent*, vector&amp;lt;LocalTransition*&amp;gt;&amp;gt;): void&lt;span style=&quot;white-space: pre;&quot;&gt;&#9;&lt;/span&gt;&lt;span style=&quot;white-space: pre;&quot;&gt;&#9;&lt;/span&gt;&lt;span style=&quot;white-space: pre;&quot;&gt;&#9;&lt;/span&gt;&lt;span style=&quot;white-space: pre;&quot;&gt;&#9;&lt;/span&gt;&lt;span style=&quot;white-space: pre;&quot;&gt;&#9;&lt;/span&gt;&lt;span style=&quot;white-space: pre;&quot;&gt;&#9;&lt;/span&gt;&lt;span style=&quot;white-space: pre;&quot;&gt;&#9;&lt;/span&gt;&lt;span style=&quot;white-space: pre;&quot;&gt;&#9;&lt;/span&gt;" style="text;html=1;strokeColor=none;fillColor=none;align=left;verticalAlign=middle;spacingLeft=4;spacingRight=4;overflow=hidden;rotatable=0;points=[[0,0.5],[1,0.5]];portConstraint=eastwest;" vertex="1" parent="2">
                    <mxGeometry y="278" width="892" height="20" as="geometry"/>
                </mxCell>
                <mxCell id="27" value="#checkLocalTransitionConditions(localTransition: LocalTransition*, globalState: GlobalState*): bool" style="text;html=1;strokeColor=none;fillColor=none;align=left;verticalAlign=middle;spacingLeft=4;spacingRight=4;overflow=hidden;rotatable=0;points=[[0,0.5],[1,0.5]];portConstraint=eastwest;" vertex="1" parent="2">
                    <mxGeometry y="298" width="892" height="20" as="geometry"/>
                </mxCell>
                <mxCell id="30" value="#computeEpistemicClassHash(localStates: set&amp;lt;LocalState*&amp;gt;*, agent: Agent*): string" style="text;html=1;strokeColor=none;fillColor=none;align=left;verticalAlign=middle;spacingLeft=4;spacingRight=4;overflow=hidden;rotatable=0;points=[[0,0.5],[1,0.5]];portConstraint=eastwest;" vertex="1" parent="2">
                    <mxGeometry y="318" width="892" height="20" as="geometry"/>
                </mxCell>
                <mxCell id="29" value="#computeGlobalStateHash(localStates: set&amp;lt;LocalState*&amp;gt;*): string" style="text;html=1;strokeColor=none;fillColor=none;align=left;verticalAlign=middle;spacingLeft=4;spacingRight=4;overflow=hidden;rotatable=0;points=[[0,0.5],[1,0.5]];portConstraint=eastwest;" vertex="1" parent="2">
                    <mxGeometry y="338" width="892" height="20" as="geometry"/>
                </mxCell>
                <mxCell id="31" value="#findOrCreateEpistemicClass(localStates: set&amp;lt;LocalState*&amp;gt;*, agent: Agent*): EpistemicClass*" style="text;html=1;strokeColor=none;fillColor=none;align=left;verticalAlign=middle;spacingLeft=4;spacingRight=4;overflow=hidden;rotatable=0;points=[[0,0.5],[1,0.5]];portConstraint=eastwest;" vertex="1" parent="2">
                    <mxGeometry y="358" width="892" height="20" as="geometry"/>
                </mxCell>
                <mxCell id="32" value="#findGlobalStateInEpistemicClass(localStates: set&amp;lt;LocalState*&amp;gt;*, epistemicClass: EpistemicClass*): GlobalState*" style="text;html=1;strokeColor=none;fillColor=none;align=left;verticalAlign=middle;spacingLeft=4;spacingRight=4;overflow=hidden;rotatable=0;points=[[0,0.5],[1,0.5]];portConstraint=eastwest;" vertex="1" parent="2">
                    <mxGeometry y="378" width="892" height="20" as="geometry"/>
                </mxCell>
                <mxCell id="33" value="&lt;b&gt;SeleneFormula&lt;/b&gt;" style="swimlane;fontStyle=0;align=center;verticalAlign=top;childLayout=stackLayout;horizontal=1;startSize=30;horizontalStack=0;resizeParent=1;resizeParentMax=0;resizeLast=0;collapsible=0;marginBottom=0;html=1;" vertex="1" parent="1">
                    <mxGeometry x="930" y="-788" width="482" height="178" as="geometry"/>
                </mxCell>
                <mxCell id="34" value="&amp;nbsp;" style="text;html=1;strokeColor=none;fillColor=none;align=left;verticalAlign=middle;spacingLeft=4;spacingRight=4;overflow=hidden;rotatable=0;points=[[0,0.5],[1,0.5]];portConstraint=eastwest;" vertex="1" parent="33">
                    <mxGeometry y="30" width="482" height="20" as="geometry"/>
                </mxCell>
                <mxCell id="37" value="" style="line;strokeWidth=1;fillColor=none;align=left;verticalAlign=middle;spacingTop=-1;spacingLeft=3;spacingRight=3;rotatable=0;labelPosition=right;points=[];portConstraint=eastwest;" vertex="1" parent="33">
                    <mxGeometry y="50" width="482" height="8" as="geometry"/>
                </mxCell>
                <mxCell id="53" value="+SeleneFormula()" style="text;html=1;strokeColor=none;fillColor=none;align=left;verticalAlign=middle;spacingLeft=4;spacingRight=4;overflow=hidden;rotatable=0;points=[[0,0.5],[1,0.5]];portConstraint=eastwest;" vertex="1" parent="33">
                    <mxGeometry y="58" width="482" height="20" as="geometry"/>
                </mxCell>
                <mxCell id="38" value="+~SeleneFormula()" style="text;html=1;strokeColor=none;fillColor=none;align=left;verticalAlign=middle;spacingLeft=4;spacingRight=4;overflow=hidden;rotatable=0;points=[[0,0.5],[1,0.5]];portConstraint=eastwest;" vertex="1" parent="33">
                    <mxGeometry y="78" width="482" height="20" as="geometry"/>
                </mxCell>
                <mxCell id="55" value="+getLocalStateForAgent(agentName: string, localStates: set&amp;lt;LocalState*&amp;gt;*) LocalState*" style="text;html=1;strokeColor=none;fillColor=none;align=left;verticalAlign=middle;spacingLeft=4;spacingRight=4;overflow=hidden;rotatable=0;points=[[0,0.5],[1,0.5]];portConstraint=eastwest;" vertex="1" parent="33">
                    <mxGeometry y="98" width="482" height="20" as="geometry"/>
                </mxCell>
                <mxCell id="56" value="+getLocalStateVar(varName: string, localState: LocalState*): int" style="text;html=1;strokeColor=none;fillColor=none;align=left;verticalAlign=middle;spacingLeft=4;spacingRight=4;overflow=hidden;rotatable=0;points=[[0,0.5],[1,0.5]];portConstraint=eastwest;" vertex="1" parent="33">
                    <mxGeometry y="118" width="482" height="20" as="geometry"/>
                </mxCell>
                <mxCell id="57" value="+implication(left: bool, right: bool): bool" style="text;html=1;strokeColor=none;fillColor=none;align=left;verticalAlign=middle;spacingLeft=4;spacingRight=4;overflow=hidden;rotatable=0;points=[[0,0.5],[1,0.5]];portConstraint=eastwest;" vertex="1" parent="33">
                    <mxGeometry y="138" width="482" height="20" as="geometry"/>
                </mxCell>
                <mxCell id="54" value="&lt;i&gt;+verifyLocalStates(localStates: set&amp;lt;LocalState*&amp;gt;*): bool&lt;/i&gt;" style="text;html=1;strokeColor=none;fillColor=none;align=left;verticalAlign=middle;spacingLeft=4;spacingRight=4;overflow=hidden;rotatable=0;points=[[0,0.5],[1,0.5]];portConstraint=eastwest;" vertex="1" parent="33">
                    <mxGeometry y="158" width="482" height="20" as="geometry"/>
                </mxCell>
                <mxCell id="58" value="&lt;b&gt;SeleneFormula1&lt;/b&gt;" style="swimlane;fontStyle=0;align=center;verticalAlign=top;childLayout=stackLayout;horizontal=1;startSize=30;horizontalStack=0;resizeParent=1;resizeParentMax=0;resizeLast=0;collapsible=0;marginBottom=0;html=1;" vertex="1" parent="1">
                    <mxGeometry x="1430" y="-728" width="312" height="118" as="geometry"/>
                </mxCell>
                <mxCell id="59" value="&amp;nbsp;" style="text;html=1;strokeColor=none;fillColor=none;align=left;verticalAlign=middle;spacingLeft=4;spacingRight=4;overflow=hidden;rotatable=0;points=[[0,0.5],[1,0.5]];portConstraint=eastwest;" vertex="1" parent="58">
                    <mxGeometry y="30" width="312" height="20" as="geometry"/>
                </mxCell>
                <mxCell id="60" value="" style="line;strokeWidth=1;fillColor=none;align=left;verticalAlign=middle;spacingTop=-1;spacingLeft=3;spacingRight=3;rotatable=0;labelPosition=right;points=[];portConstraint=eastwest;" vertex="1" parent="58">
                    <mxGeometry y="50" width="312" height="8" as="geometry"/>
                </mxCell>
                <mxCell id="61" value="+SeleneFormula1()" style="text;html=1;strokeColor=none;fillColor=none;align=left;verticalAlign=middle;spacingLeft=4;spacingRight=4;overflow=hidden;rotatable=0;points=[[0,0.5],[1,0.5]];portConstraint=eastwest;" vertex="1" parent="58">
                    <mxGeometry y="58" width="312" height="20" as="geometry"/>
                </mxCell>
                <mxCell id="62" value="+~SeleneFormula1()" style="text;html=1;strokeColor=none;fillColor=none;align=left;verticalAlign=middle;spacingLeft=4;spacingRight=4;overflow=hidden;rotatable=0;points=[[0,0.5],[1,0.5]];portConstraint=eastwest;" vertex="1" parent="58">
                    <mxGeometry y="78" width="312" height="20" as="geometry"/>
                </mxCell>
                <mxCell id="66" value="+verifyLocalStates(localStates: set&amp;lt;LocalState*&amp;gt;*): bool" style="text;html=1;strokeColor=none;fillColor=none;align=left;verticalAlign=middle;spacingLeft=4;spacingRight=4;overflow=hidden;rotatable=0;points=[[0,0.5],[1,0.5]];portConstraint=eastwest;" vertex="1" parent="58">
                    <mxGeometry y="98" width="312" height="20" as="geometry"/>
                </mxCell>
                <mxCell id="67" value="&lt;b&gt;TestParser&lt;/b&gt;" style="swimlane;fontStyle=0;align=center;verticalAlign=top;childLayout=stackLayout;horizontal=1;startSize=30;horizontalStack=0;resizeParent=1;resizeParentMax=0;resizeLast=0;collapsible=0;marginBottom=0;html=1;" vertex="1" parent="1">
                    <mxGeometry x="1080" y="450" width="222" height="116" as="geometry"/>
                </mxCell>
                <mxCell id="68" value="&amp;nbsp;" style="text;html=1;strokeColor=none;fillColor=none;align=left;verticalAlign=middle;spacingLeft=4;spacingRight=4;overflow=hidden;rotatable=0;points=[[0,0.5],[1,0.5]];portConstraint=eastwest;" vertex="1" parent="67">
                    <mxGeometry y="30" width="222" height="20" as="geometry"/>
                </mxCell>
                <mxCell id="69" value="" style="line;strokeWidth=1;fillColor=none;align=left;verticalAlign=middle;spacingTop=-1;spacingLeft=3;spacingRight=3;rotatable=0;labelPosition=right;points=[];portConstraint=eastwest;" vertex="1" parent="67">
                    <mxGeometry y="50" width="222" height="8" as="geometry"/>
                </mxCell>
                <mxCell id="70" value="+TestParser()" style="text;html=1;strokeColor=none;fillColor=none;align=left;verticalAlign=middle;spacingLeft=4;spacingRight=4;overflow=hidden;rotatable=0;points=[[0,0.5],[1,0.5]];portConstraint=eastwest;" vertex="1" parent="67">
                    <mxGeometry y="58" width="222" height="20" as="geometry"/>
                </mxCell>
                <mxCell id="71" value="+~TestParser()" style="text;html=1;strokeColor=none;fillColor=none;align=left;verticalAlign=middle;spacingLeft=4;spacingRight=4;overflow=hidden;rotatable=0;points=[[0,0.5],[1,0.5]];portConstraint=eastwest;" vertex="1" parent="67">
                    <mxGeometry y="78" width="222" height="18" as="geometry"/>
                </mxCell>
                <mxCell id="72" value="+parse(fileName: string): LocalModels*" style="text;html=1;strokeColor=none;fillColor=none;align=left;verticalAlign=middle;spacingLeft=4;spacingRight=4;overflow=hidden;rotatable=0;points=[[0,0.5],[1,0.5]];portConstraint=eastwest;" vertex="1" parent="67">
                    <mxGeometry y="96" width="222" height="20" as="geometry"/>
                </mxCell>
                <mxCell id="73" value="&lt;b&gt;Agent&lt;/b&gt;" style="swimlane;fontStyle=0;align=center;verticalAlign=top;childLayout=stackLayout;horizontal=1;startSize=30;horizontalStack=0;resizeParent=1;resizeParentMax=0;resizeLast=0;collapsible=0;marginBottom=0;html=1;" vertex="1" parent="1">
                    <mxGeometry x="1370" y="10" width="262" height="198" as="geometry"/>
                </mxCell>
                <mxCell id="80" value="+id: int = _id" style="text;html=1;strokeColor=none;fillColor=none;align=left;verticalAlign=middle;spacingLeft=4;spacingRight=4;overflow=hidden;rotatable=0;points=[[0,0.5],[1,0.5]];portConstraint=eastwest;" vertex="1" parent="73">
                    <mxGeometry y="30" width="262" height="20" as="geometry"/>
                </mxCell>
                <mxCell id="81" value="+name: string = _name" style="text;html=1;strokeColor=none;fillColor=none;align=left;verticalAlign=middle;spacingLeft=4;spacingRight=4;overflow=hidden;rotatable=0;points=[[0,0.5],[1,0.5]];portConstraint=eastwest;" vertex="1" parent="73">
                    <mxGeometry y="50" width="262" height="20" as="geometry"/>
                </mxCell>
                <mxCell id="83" value="+vars: set&amp;lt;Var*&amp;gt;" style="text;html=1;strokeColor=none;fillColor=none;align=left;verticalAlign=middle;spacingLeft=4;spacingRight=4;overflow=hidden;rotatable=0;points=[[0,0.5],[1,0.5]];portConstraint=eastwest;" vertex="1" parent="73">
                    <mxGeometry y="70" width="262" height="20" as="geometry"/>
                </mxCell>
                <mxCell id="84" value="+initState: LocalState*" style="text;html=1;strokeColor=none;fillColor=none;align=left;verticalAlign=middle;spacingLeft=4;spacingRight=4;overflow=hidden;rotatable=0;points=[[0,0.5],[1,0.5]];portConstraint=eastwest;" vertex="1" parent="73">
                    <mxGeometry y="90" width="262" height="20" as="geometry"/>
                </mxCell>
                <mxCell id="85" value="+localStates: vector&amp;lt;LocalState*&amp;gt;" style="text;html=1;strokeColor=none;fillColor=none;align=left;verticalAlign=middle;spacingLeft=4;spacingRight=4;overflow=hidden;rotatable=0;points=[[0,0.5],[1,0.5]];portConstraint=eastwest;" vertex="1" parent="73">
                    <mxGeometry y="110" width="262" height="20" as="geometry"/>
                </mxCell>
                <mxCell id="82" value="+localTransitions: vector&amp;lt;LocalTransition*&amp;gt;" style="text;html=1;strokeColor=none;fillColor=none;align=left;verticalAlign=middle;spacingLeft=4;spacingRight=4;overflow=hidden;rotatable=0;points=[[0,0.5],[1,0.5]];portConstraint=eastwest;" vertex="1" parent="73">
                    <mxGeometry y="130" width="262" height="20" as="geometry"/>
                </mxCell>
                <mxCell id="75" value="" style="line;strokeWidth=1;fillColor=none;align=left;verticalAlign=middle;spacingTop=-1;spacingLeft=3;spacingRight=3;rotatable=0;labelPosition=right;points=[];portConstraint=eastwest;" vertex="1" parent="73">
                    <mxGeometry y="150" width="262" height="8" as="geometry"/>
                </mxCell>
                <mxCell id="86" value="+Agent(_id: int, _name: string)" style="text;html=1;strokeColor=none;fillColor=none;align=left;verticalAlign=middle;spacingLeft=4;spacingRight=4;overflow=hidden;rotatable=0;points=[[0,0.5],[1,0.5]];portConstraint=eastwest;" vertex="1" parent="73">
                    <mxGeometry y="158" width="262" height="20" as="geometry"/>
                </mxCell>
                <mxCell id="76" value="+includesState(state: LocalState*): LocalState*" style="text;html=1;strokeColor=none;fillColor=none;align=left;verticalAlign=middle;spacingLeft=4;spacingRight=4;overflow=hidden;rotatable=0;points=[[0,0.5],[1,0.5]];portConstraint=eastwest;" vertex="1" parent="73">
                    <mxGeometry y="178" width="262" height="20" as="geometry"/>
                </mxCell>
                <mxCell id="261" style="edgeStyle=elbowEdgeStyle;html=1;elbow=vertical;" edge="1" parent="1" source="88" target="222">
                    <mxGeometry relative="1" as="geometry">
                        <Array as="points">
                            <mxPoint x="1690" y="-540"/>
                        </Array>
                    </mxGeometry>
                </mxCell>
                <mxCell id="88" value="&lt;b&gt;LocalState&lt;/b&gt;" style="swimlane;fontStyle=0;align=center;verticalAlign=top;childLayout=stackLayout;horizontal=1;startSize=30;horizontalStack=0;resizeParent=1;resizeParentMax=0;resizeLast=0;collapsible=0;marginBottom=0;html=1;" vertex="1" parent="1">
                    <mxGeometry x="1372" y="-560" width="262" height="218" as="geometry"/>
                </mxCell>
                <mxCell id="147" value="&amp;lt;&amp;lt;data&amp;gt;&amp;gt;" style="text;html=1;strokeColor=none;fillColor=none;align=left;verticalAlign=middle;spacingLeft=4;spacingRight=4;overflow=hidden;rotatable=0;points=[[0,0.5],[1,0.5]];portConstraint=eastwest;" vertex="1" parent="88">
                    <mxGeometry y="30" width="262" height="20" as="geometry"/>
                </mxCell>
                <mxCell id="89" value="+id: int = _id" style="text;html=1;strokeColor=none;fillColor=none;align=left;verticalAlign=middle;spacingLeft=4;spacingRight=4;overflow=hidden;rotatable=0;points=[[0,0.5],[1,0.5]];portConstraint=eastwest;" vertex="1" parent="88">
                    <mxGeometry y="50" width="262" height="20" as="geometry"/>
                </mxCell>
                <mxCell id="90" value="+name: string = _name" style="text;html=1;strokeColor=none;fillColor=none;align=left;verticalAlign=middle;spacingLeft=4;spacingRight=4;overflow=hidden;rotatable=0;points=[[0,0.5],[1,0.5]];portConstraint=eastwest;" vertex="1" parent="88">
                    <mxGeometry y="70" width="262" height="20" as="geometry"/>
                </mxCell>
                <mxCell id="91" value="+vars: map&amp;lt;Var*, int&amp;gt;" style="text;html=1;strokeColor=none;fillColor=none;align=left;verticalAlign=middle;spacingLeft=4;spacingRight=4;overflow=hidden;rotatable=0;points=[[0,0.5],[1,0.5]];portConstraint=eastwest;" vertex="1" parent="88">
                    <mxGeometry y="90" width="262" height="20" as="geometry"/>
                </mxCell>
                <mxCell id="100" value="+environment: map&amp;lt;string, int&amp;gt;" style="text;html=1;strokeColor=none;fillColor=none;align=left;verticalAlign=middle;spacingLeft=4;spacingRight=4;overflow=hidden;rotatable=0;points=[[0,0.5],[1,0.5]];portConstraint=eastwest;" vertex="1" parent="88">
                    <mxGeometry y="110" width="262" height="20" as="geometry"/>
                </mxCell>
                <mxCell id="148" value="&amp;lt;&amp;lt;bindings&amp;gt;&amp;gt;" style="text;html=1;strokeColor=none;fillColor=none;align=left;verticalAlign=middle;spacingLeft=4;spacingRight=4;overflow=hidden;rotatable=0;points=[[0,0.5],[1,0.5]];portConstraint=eastwest;" vertex="1" parent="88">
                    <mxGeometry y="130" width="262" height="20" as="geometry"/>
                </mxCell>
                <mxCell id="101" value="+agent: *Agent" style="text;html=1;strokeColor=none;fillColor=none;align=left;verticalAlign=middle;spacingLeft=4;spacingRight=4;overflow=hidden;rotatable=0;points=[[0,0.5],[1,0.5]];portConstraint=eastwest;" vertex="1" parent="88">
                    <mxGeometry y="150" width="262" height="20" as="geometry"/>
                </mxCell>
                <mxCell id="98" value="+localTransitions: set&amp;lt;LocalTransition*&amp;gt;" style="text;html=1;strokeColor=none;fillColor=none;align=left;verticalAlign=middle;spacingLeft=4;spacingRight=4;overflow=hidden;rotatable=0;points=[[0,0.5],[1,0.5]];portConstraint=eastwest;" vertex="1" parent="88">
                    <mxGeometry y="170" width="262" height="20" as="geometry"/>
                </mxCell>
                <mxCell id="95" value="" style="line;strokeWidth=1;fillColor=none;align=left;verticalAlign=middle;spacingTop=-1;spacingLeft=3;spacingRight=3;rotatable=0;labelPosition=right;points=[];portConstraint=eastwest;" vertex="1" parent="88">
                    <mxGeometry y="190" width="262" height="8" as="geometry"/>
                </mxCell>
                <mxCell id="97" value="+compare(state: *LocalState): bool" style="text;html=1;strokeColor=none;fillColor=none;align=left;verticalAlign=middle;spacingLeft=4;spacingRight=4;overflow=hidden;rotatable=0;points=[[0,0.5],[1,0.5]];portConstraint=eastwest;" vertex="1" parent="88">
                    <mxGeometry y="198" width="262" height="20" as="geometry"/>
                </mxCell>
                <mxCell id="119" value="&amp;lt;&amp;lt;struct&amp;gt;&amp;gt;&lt;br&gt;&lt;b&gt;VarAssignment&lt;/b&gt;" style="swimlane;fontStyle=0;align=center;verticalAlign=top;childLayout=stackLayout;horizontal=1;startSize=40;horizontalStack=0;resizeParent=1;resizeParentMax=0;resizeLast=0;collapsible=0;marginBottom=0;html=1;" vertex="1" parent="1">
                    <mxGeometry x="1795" y="-140" width="150" height="120" as="geometry"/>
                </mxCell>
                <mxCell id="146" value="dstVar: Var*" style="text;html=1;strokeColor=none;fillColor=none;align=left;verticalAlign=middle;spacingLeft=4;spacingRight=4;overflow=hidden;rotatable=0;points=[[0,0.5],[1,0.5]];portConstraint=eastwest;" vertex="1" parent="119">
                    <mxGeometry y="40" width="150" height="20" as="geometry"/>
                </mxCell>
                <mxCell id="122" value="type: VarAssignmentType" style="text;html=1;strokeColor=none;fillColor=none;align=left;verticalAlign=middle;spacingLeft=4;spacingRight=4;overflow=hidden;rotatable=0;points=[[0,0.5],[1,0.5]];portConstraint=eastwest;" vertex="1" parent="119">
                    <mxGeometry y="60" width="150" height="20" as="geometry"/>
                </mxCell>
                <mxCell id="124" value="srcVar: Var*" style="text;html=1;strokeColor=none;fillColor=none;align=left;verticalAlign=middle;spacingLeft=4;spacingRight=4;overflow=hidden;rotatable=0;points=[[0,0.5],[1,0.5]];portConstraint=eastwest;" vertex="1" parent="119">
                    <mxGeometry y="80" width="150" height="20" as="geometry"/>
                </mxCell>
                <mxCell id="125" value="value: int" style="text;html=1;strokeColor=none;fillColor=none;align=left;verticalAlign=middle;spacingLeft=4;spacingRight=4;overflow=hidden;rotatable=0;points=[[0,0.5],[1,0.5]];portConstraint=eastwest;" vertex="1" parent="119">
                    <mxGeometry y="100" width="150" height="20" as="geometry"/>
                </mxCell>
                <mxCell id="272" style="edgeStyle=elbowEdgeStyle;html=1;" edge="1" parent="1" source="126" target="222">
                    <mxGeometry relative="1" as="geometry">
                        <Array as="points">
                            <mxPoint x="1680" y="-220"/>
                            <mxPoint x="1680" y="-510"/>
                            <mxPoint x="1680" y="-480"/>
                            <mxPoint x="1670" y="-340"/>
                        </Array>
                    </mxGeometry>
                </mxCell>
                <mxCell id="273" style="edgeStyle=elbowEdgeStyle;html=1;" edge="1" parent="1" source="126" target="119">
                    <mxGeometry relative="1" as="geometry">
                        <Array as="points">
                            <mxPoint x="1700" y="-80"/>
                            <mxPoint x="1660" y="-210"/>
                        </Array>
                    </mxGeometry>
                </mxCell>
                <mxCell id="126" value="&amp;lt;&amp;lt;struct&amp;gt;&amp;gt;&lt;br&gt;&lt;b&gt;LocalTransition&lt;/b&gt;" style="swimlane;fontStyle=0;align=center;verticalAlign=top;childLayout=stackLayout;horizontal=1;startSize=40;horizontalStack=0;resizeParent=1;resizeParentMax=0;resizeLast=0;collapsible=0;marginBottom=0;html=1;" vertex="1" parent="1">
                    <mxGeometry x="1373" y="-320" width="260" height="300" as="geometry"/>
                </mxCell>
                <mxCell id="123" value="&amp;lt;&amp;lt;data&amp;gt;&amp;gt;" style="text;html=1;strokeColor=none;fillColor=none;align=left;verticalAlign=middle;spacingLeft=4;spacingRight=4;overflow=hidden;rotatable=0;points=[[0,0.5],[1,0.5]];portConstraint=eastwest;" vertex="1" parent="126">
                    <mxGeometry y="40" width="260" height="20" as="geometry"/>
                </mxCell>
                <mxCell id="127" value="id: int" style="text;html=1;strokeColor=none;fillColor=none;align=left;verticalAlign=middle;spacingLeft=4;spacingRight=4;overflow=hidden;rotatable=0;points=[[0,0.5],[1,0.5]];portConstraint=eastwest;" vertex="1" parent="126">
                    <mxGeometry y="60" width="260" height="20" as="geometry"/>
                </mxCell>
                <mxCell id="132" value="name: string" style="text;html=1;strokeColor=none;fillColor=none;align=left;verticalAlign=middle;spacingLeft=4;spacingRight=4;overflow=hidden;rotatable=0;points=[[0,0.5],[1,0.5]];portConstraint=eastwest;" vertex="1" parent="126">
                    <mxGeometry y="80" width="260" height="20" as="geometry"/>
                </mxCell>
                <mxCell id="133" value="localName: string" style="text;html=1;strokeColor=none;fillColor=none;align=left;verticalAlign=middle;spacingLeft=4;spacingRight=4;overflow=hidden;rotatable=0;points=[[0,0.5],[1,0.5]];portConstraint=eastwest;" vertex="1" parent="126">
                    <mxGeometry y="100" width="260" height="20" as="geometry"/>
                </mxCell>
                <mxCell id="135" value="isShared: bool" style="text;html=1;strokeColor=none;fillColor=none;align=left;verticalAlign=middle;spacingLeft=4;spacingRight=4;overflow=hidden;rotatable=0;points=[[0,0.5],[1,0.5]];portConstraint=eastwest;" vertex="1" parent="126">
                    <mxGeometry y="120" width="260" height="20" as="geometry"/>
                </mxCell>
                <mxCell id="136" value="sharedCount: int" style="text;html=1;strokeColor=none;fillColor=none;align=left;verticalAlign=middle;spacingLeft=4;spacingRight=4;overflow=hidden;rotatable=0;points=[[0,0.5],[1,0.5]];portConstraint=eastwest;" vertex="1" parent="126">
                    <mxGeometry y="140" width="260" height="20" as="geometry"/>
                </mxCell>
                <mxCell id="134" value="conditions: set&amp;lt;Condition*&amp;gt;" style="text;html=1;strokeColor=none;fillColor=none;align=left;verticalAlign=middle;spacingLeft=4;spacingRight=4;overflow=hidden;rotatable=0;points=[[0,0.5],[1,0.5]];portConstraint=eastwest;" vertex="1" parent="126">
                    <mxGeometry y="160" width="260" height="20" as="geometry"/>
                </mxCell>
                <mxCell id="131" value="varAsssignments: set&amp;lt;VarAssignment*&amp;gt;" style="text;html=1;strokeColor=none;fillColor=none;align=left;verticalAlign=middle;spacingLeft=4;spacingRight=4;overflow=hidden;rotatable=0;points=[[0,0.5],[1,0.5]];portConstraint=eastwest;" vertex="1" parent="126">
                    <mxGeometry y="180" width="260" height="20" as="geometry"/>
                </mxCell>
                <mxCell id="150" value="&amp;lt;&amp;lt;bindings&amp;gt;&amp;gt;" style="text;html=1;strokeColor=none;fillColor=none;align=left;verticalAlign=middle;spacingLeft=4;spacingRight=4;overflow=hidden;rotatable=0;points=[[0,0.5],[1,0.5]];portConstraint=eastwest;" vertex="1" parent="126">
                    <mxGeometry y="200" width="260" height="20" as="geometry"/>
                </mxCell>
                <mxCell id="151" value="agent: Agent*" style="text;html=1;strokeColor=none;fillColor=none;align=left;verticalAlign=middle;spacingLeft=4;spacingRight=4;overflow=hidden;rotatable=0;points=[[0,0.5],[1,0.5]];portConstraint=eastwest;" vertex="1" parent="126">
                    <mxGeometry y="220" width="260" height="20" as="geometry"/>
                </mxCell>
                <mxCell id="153" value="from: LocalState*" style="text;html=1;strokeColor=none;fillColor=none;align=left;verticalAlign=middle;spacingLeft=4;spacingRight=4;overflow=hidden;rotatable=0;points=[[0,0.5],[1,0.5]];portConstraint=eastwest;" vertex="1" parent="126">
                    <mxGeometry y="240" width="260" height="20" as="geometry"/>
                </mxCell>
                <mxCell id="152" value="to: LocalState*" style="text;html=1;strokeColor=none;fillColor=none;align=left;verticalAlign=middle;spacingLeft=4;spacingRight=4;overflow=hidden;rotatable=0;points=[[0,0.5],[1,0.5]];portConstraint=eastwest;" vertex="1" parent="126">
                    <mxGeometry y="260" width="260" height="20" as="geometry"/>
                </mxCell>
                <mxCell id="149" value="sharedLocalTransitions: set&amp;lt;LocalTransition*&amp;gt;" style="text;html=1;strokeColor=none;fillColor=none;align=left;verticalAlign=middle;spacingLeft=4;spacingRight=4;overflow=hidden;rotatable=0;points=[[0,0.5],[1,0.5]];portConstraint=eastwest;" vertex="1" parent="126">
                    <mxGeometry y="280" width="260" height="20" as="geometry"/>
                </mxCell>
                <mxCell id="278" style="edgeStyle=elbowEdgeStyle;html=1;" edge="1" parent="1" source="138" target="213">
                    <mxGeometry relative="1" as="geometry">
                        <Array as="points">
                            <mxPoint x="2070" y="610"/>
                            <mxPoint x="1290" y="610"/>
                        </Array>
                    </mxGeometry>
                </mxCell>
                <mxCell id="279" style="edgeStyle=elbowEdgeStyle;html=1;elbow=vertical;" edge="1" parent="1" source="138" target="73">
                    <mxGeometry relative="1" as="geometry">
                        <Array as="points">
                            <mxPoint x="1360" y="240"/>
                        </Array>
                    </mxGeometry>
                </mxCell>
                <mxCell id="138" value="&amp;lt;&amp;lt;struct&amp;gt;&amp;gt;&lt;br&gt;&lt;b&gt;LocalModels&lt;/b&gt;" style="swimlane;fontStyle=0;align=center;verticalAlign=top;childLayout=stackLayout;horizontal=1;startSize=40;horizontalStack=0;resizeParent=1;resizeParentMax=0;resizeLast=0;collapsible=0;marginBottom=0;html=1;" vertex="1" parent="1">
                    <mxGeometry x="930" y="338" width="140" height="80" as="geometry"/>
                </mxCell>
                <mxCell id="139" value="agents: vector&amp;lt;Agent*&amp;gt;" style="text;html=1;strokeColor=none;fillColor=none;align=left;verticalAlign=middle;spacingLeft=4;spacingRight=4;overflow=hidden;rotatable=0;points=[[0,0.5],[1,0.5]];portConstraint=eastwest;" vertex="1" parent="138">
                    <mxGeometry y="40" width="140" height="20" as="geometry"/>
                </mxCell>
                <mxCell id="140" value="vars: map&amp;lt;string, Var*&amp;gt;" style="text;html=1;strokeColor=none;fillColor=none;align=left;verticalAlign=middle;spacingLeft=4;spacingRight=4;overflow=hidden;rotatable=0;points=[[0,0.5],[1,0.5]];portConstraint=eastwest;" vertex="1" parent="138">
                    <mxGeometry y="60" width="140" height="20" as="geometry"/>
                </mxCell>
                <mxCell id="286" style="edgeStyle=elbowEdgeStyle;html=1;elbow=vertical;" edge="1" parent="1" source="154" target="73">
                    <mxGeometry relative="1" as="geometry">
                        <Array as="points">
                            <mxPoint x="1190" y="80"/>
                        </Array>
                    </mxGeometry>
                </mxCell>
                <mxCell id="287" style="edgeStyle=elbowEdgeStyle;html=1;elbow=vertical;" edge="1" parent="1" source="154" target="228">
                    <mxGeometry relative="1" as="geometry"/>
                </mxCell>
                <mxCell id="154" value="&amp;lt;&amp;lt;struct&amp;gt;&amp;gt;&lt;br&gt;&lt;b&gt;GlobalModel&lt;/b&gt;" style="swimlane;fontStyle=0;align=center;verticalAlign=top;childLayout=stackLayout;horizontal=1;startSize=40;horizontalStack=0;resizeParent=1;resizeParentMax=0;resizeLast=0;collapsible=0;marginBottom=0;html=1;" vertex="1" parent="1">
                    <mxGeometry x="410" y="20" width="350" height="200" as="geometry"/>
                </mxCell>
                <mxCell id="162" value="&amp;lt;&amp;lt;data&amp;gt;&amp;gt;" style="text;html=1;strokeColor=none;fillColor=none;align=left;verticalAlign=middle;spacingLeft=4;spacingRight=4;overflow=hidden;rotatable=0;points=[[0,0.5],[1,0.5]];portConstraint=eastwest;" vertex="1" parent="154">
                    <mxGeometry y="40" width="350" height="20" as="geometry"/>
                </mxCell>
                <mxCell id="155" value="agents: vector&amp;lt;Agent*&amp;gt;" style="text;html=1;strokeColor=none;fillColor=none;align=left;verticalAlign=middle;spacingLeft=4;spacingRight=4;overflow=hidden;rotatable=0;points=[[0,0.5],[1,0.5]];portConstraint=eastwest;" vertex="1" parent="154">
                    <mxGeometry y="60" width="350" height="20" as="geometry"/>
                </mxCell>
                <mxCell id="156" value="formula: Formula*" style="text;html=1;strokeColor=none;fillColor=none;align=left;verticalAlign=middle;spacingLeft=4;spacingRight=4;overflow=hidden;rotatable=0;points=[[0,0.5],[1,0.5]];portConstraint=eastwest;" vertex="1" parent="154">
                    <mxGeometry y="80" width="350" height="20" as="geometry"/>
                </mxCell>
                <mxCell id="163" value="&amp;lt;&amp;lt;bindings&amp;gt;&amp;gt;" style="text;html=1;strokeColor=none;fillColor=none;align=left;verticalAlign=middle;spacingLeft=4;spacingRight=4;overflow=hidden;rotatable=0;points=[[0,0.5],[1,0.5]];portConstraint=eastwest;" vertex="1" parent="154">
                    <mxGeometry y="100" width="350" height="20" as="geometry"/>
                </mxCell>
                <mxCell id="157" value="initState: GlobalState*" style="text;html=1;strokeColor=none;fillColor=none;align=left;verticalAlign=middle;spacingLeft=4;spacingRight=4;overflow=hidden;rotatable=0;points=[[0,0.5],[1,0.5]];portConstraint=eastwest;" vertex="1" parent="154">
                    <mxGeometry y="120" width="350" height="20" as="geometry"/>
                </mxCell>
                <mxCell id="158" value="globalStates: vector&amp;lt;GlobalState*&amp;gt;" style="text;html=1;strokeColor=none;fillColor=none;align=left;verticalAlign=middle;spacingLeft=4;spacingRight=4;overflow=hidden;rotatable=0;points=[[0,0.5],[1,0.5]];portConstraint=eastwest;" vertex="1" parent="154">
                    <mxGeometry y="140" width="350" height="20" as="geometry"/>
                </mxCell>
                <mxCell id="159" value="globalTransitions: vector&amp;lt;GlobalTransition*&amp;gt;" style="text;html=1;strokeColor=none;fillColor=none;align=left;verticalAlign=middle;spacingLeft=4;spacingRight=4;overflow=hidden;rotatable=0;points=[[0,0.5],[1,0.5]];portConstraint=eastwest;" vertex="1" parent="154">
                    <mxGeometry y="160" width="350" height="20" as="geometry"/>
                </mxCell>
                <mxCell id="160" value="epistemicClasses: map&amp;lt;Agent*, map&amp;lt;string, EpistemicClass*&amp;gt;&amp;gt;" style="text;html=1;strokeColor=none;fillColor=none;align=left;verticalAlign=middle;spacingLeft=4;spacingRight=4;overflow=hidden;rotatable=0;points=[[0,0.5],[1,0.5]];portConstraint=eastwest;" vertex="1" parent="154">
                    <mxGeometry y="180" width="350" height="20" as="geometry"/>
                </mxCell>
                <mxCell id="280" style="edgeStyle=orthogonalEdgeStyle;html=1;" edge="1" parent="1" source="164" target="213">
                    <mxGeometry relative="1" as="geometry">
                        <Array as="points">
                            <mxPoint x="2040" y="380"/>
                        </Array>
                    </mxGeometry>
                </mxCell>
                <mxCell id="281" style="edgeStyle=elbowEdgeStyle;html=1;" edge="1" parent="1" source="164" target="73">
                    <mxGeometry relative="1" as="geometry">
                        <Array as="points">
                            <mxPoint x="1520" y="260"/>
                        </Array>
                    </mxGeometry>
                </mxCell>
                <mxCell id="283" style="edgeStyle=elbowEdgeStyle;html=1;elbow=vertical;" edge="1" parent="1" source="164" target="205">
                    <mxGeometry relative="1" as="geometry"/>
                </mxCell>
                <mxCell id="284" style="edgeStyle=elbowEdgeStyle;html=1;" edge="1" parent="1" source="164" target="180">
                    <mxGeometry relative="1" as="geometry">
                        <Array as="points">
                            <mxPoint x="1520" y="690"/>
                        </Array>
                    </mxGeometry>
                </mxCell>
                <mxCell id="285" style="edgeStyle=orthogonalEdgeStyle;html=1;" edge="1" parent="1" source="164" target="88">
                    <mxGeometry relative="1" as="geometry">
                        <Array as="points">
                            <mxPoint x="1770" y="360"/>
                            <mxPoint x="1770" y="-400"/>
                        </Array>
                    </mxGeometry>
                </mxCell>
                <mxCell id="164" value="&amp;lt;&amp;lt;struct&amp;gt;&amp;gt;&lt;br&gt;&lt;b&gt;GlobalState&lt;/b&gt;" style="swimlane;fontStyle=0;align=center;verticalAlign=top;childLayout=stackLayout;horizontal=1;startSize=40;horizontalStack=0;resizeParent=1;resizeParentMax=0;resizeLast=0;collapsible=0;marginBottom=0;html=1;" vertex="1" parent="1">
                    <mxGeometry x="1362" y="280" width="282" height="240" as="geometry"/>
                </mxCell>
                <mxCell id="165" value="&amp;lt;&amp;lt;data&amp;gt;&amp;gt;" style="text;html=1;strokeColor=none;fillColor=none;align=left;verticalAlign=middle;spacingLeft=4;spacingRight=4;overflow=hidden;rotatable=0;points=[[0,0.5],[1,0.5]];portConstraint=eastwest;" vertex="1" parent="164">
                    <mxGeometry y="40" width="282" height="20" as="geometry"/>
                </mxCell>
                <mxCell id="173" value="id: int" style="text;html=1;strokeColor=none;fillColor=none;align=left;verticalAlign=middle;spacingLeft=4;spacingRight=4;overflow=hidden;rotatable=0;points=[[0,0.5],[1,0.5]];portConstraint=eastwest;" vertex="1" parent="164">
                    <mxGeometry y="60" width="282" height="20" as="geometry"/>
                </mxCell>
                <mxCell id="167" value="hash: string" style="text;html=1;strokeColor=none;fillColor=none;align=left;verticalAlign=middle;spacingLeft=4;spacingRight=4;overflow=hidden;rotatable=0;points=[[0,0.5],[1,0.5]];portConstraint=eastwest;" vertex="1" parent="164">
                    <mxGeometry y="80" width="282" height="20" as="geometry"/>
                </mxCell>
                <mxCell id="177" value="vars: map&amp;lt;Var*, int&amp;gt;" style="text;html=1;strokeColor=none;fillColor=none;align=left;verticalAlign=middle;spacingLeft=4;spacingRight=4;overflow=hidden;rotatable=0;points=[[0,0.5],[1,0.5]];portConstraint=eastwest;" vertex="1" parent="164">
                    <mxGeometry y="100" width="282" height="20" as="geometry"/>
                </mxCell>
                <mxCell id="179" value="epistemicClasses: map&amp;lt;Agent*, EpistemicClass*&amp;gt;" style="text;html=1;strokeColor=none;fillColor=none;align=left;verticalAlign=middle;spacingLeft=4;spacingRight=4;overflow=hidden;rotatable=0;points=[[0,0.5],[1,0.5]];portConstraint=eastwest;" vertex="1" parent="164">
                    <mxGeometry y="120" width="282" height="20" as="geometry"/>
                </mxCell>
                <mxCell id="178" value="isExpanded: bool" style="text;html=1;strokeColor=none;fillColor=none;align=left;verticalAlign=middle;spacingLeft=4;spacingRight=4;overflow=hidden;rotatable=0;points=[[0,0.5],[1,0.5]];portConstraint=eastwest;" vertex="1" parent="164">
                    <mxGeometry y="140" width="282" height="20" as="geometry"/>
                </mxCell>
                <mxCell id="174" value="verificationStatus: GlobalStateVerificationStatus" style="text;html=1;strokeColor=none;fillColor=none;align=left;verticalAlign=middle;spacingLeft=4;spacingRight=4;overflow=hidden;rotatable=0;points=[[0,0.5],[1,0.5]];portConstraint=eastwest;" vertex="1" parent="164">
                    <mxGeometry y="160" width="282" height="20" as="geometry"/>
                </mxCell>
                <mxCell id="168" value="&amp;lt;&amp;lt;bindings&amp;gt;&amp;gt;" style="text;html=1;strokeColor=none;fillColor=none;align=left;verticalAlign=middle;spacingLeft=4;spacingRight=4;overflow=hidden;rotatable=0;points=[[0,0.5],[1,0.5]];portConstraint=eastwest;" vertex="1" parent="164">
                    <mxGeometry y="180" width="282" height="20" as="geometry"/>
                </mxCell>
                <mxCell id="172" value="globalTransitions: set&amp;lt;GlobalTransition*&amp;gt;" style="text;html=1;strokeColor=none;fillColor=none;align=left;verticalAlign=middle;spacingLeft=4;spacingRight=4;overflow=hidden;rotatable=0;points=[[0,0.5],[1,0.5]];portConstraint=eastwest;" vertex="1" parent="164">
                    <mxGeometry y="200" width="282" height="20" as="geometry"/>
                </mxCell>
                <mxCell id="176" value="localStates: set&amp;lt;LocalState*&amp;gt;" style="text;html=1;strokeColor=none;fillColor=none;align=left;verticalAlign=middle;spacingLeft=4;spacingRight=4;overflow=hidden;rotatable=0;points=[[0,0.5],[1,0.5]];portConstraint=eastwest;" vertex="1" parent="164">
                    <mxGeometry y="220" width="282" height="20" as="geometry"/>
                </mxCell>
                <mxCell id="180" value="&amp;lt;&amp;lt;struct&amp;gt;&amp;gt;&lt;br&gt;&lt;b&gt;GlobalTransition&lt;/b&gt;" style="swimlane;fontStyle=0;align=center;verticalAlign=top;childLayout=stackLayout;horizontal=1;startSize=40;horizontalStack=0;resizeParent=1;resizeParentMax=0;resizeLast=0;collapsible=0;marginBottom=0;html=1;" vertex="1" parent="1">
                    <mxGeometry x="1200" y="760" width="350" height="180" as="geometry"/>
                </mxCell>
                <mxCell id="181" value="&amp;lt;&amp;lt;data&amp;gt;&amp;gt;" style="text;html=1;strokeColor=none;fillColor=none;align=left;verticalAlign=middle;spacingLeft=4;spacingRight=4;overflow=hidden;rotatable=0;points=[[0,0.5],[1,0.5]];portConstraint=eastwest;" vertex="1" parent="180">
                    <mxGeometry y="40" width="350" height="20" as="geometry"/>
                </mxCell>
                <mxCell id="182" value="id: int" style="text;html=1;strokeColor=none;fillColor=none;align=left;verticalAlign=middle;spacingLeft=4;spacingRight=4;overflow=hidden;rotatable=0;points=[[0,0.5],[1,0.5]];portConstraint=eastwest;" vertex="1" parent="180">
                    <mxGeometry y="60" width="350" height="20" as="geometry"/>
                </mxCell>
                <mxCell id="183" value="isInvalidDecision: bool" style="text;html=1;strokeColor=none;fillColor=none;align=left;verticalAlign=middle;spacingLeft=4;spacingRight=4;overflow=hidden;rotatable=0;points=[[0,0.5],[1,0.5]];portConstraint=eastwest;" vertex="1" parent="180">
                    <mxGeometry y="80" width="350" height="20" as="geometry"/>
                </mxCell>
                <mxCell id="188" value="&amp;lt;&amp;lt;bindings&amp;gt;&amp;gt;" style="text;html=1;strokeColor=none;fillColor=none;align=left;verticalAlign=middle;spacingLeft=4;spacingRight=4;overflow=hidden;rotatable=0;points=[[0,0.5],[1,0.5]];portConstraint=eastwest;" vertex="1" parent="180">
                    <mxGeometry y="100" width="350" height="20" as="geometry"/>
                </mxCell>
                <mxCell id="189" value="from: GlobalState*" style="text;html=1;strokeColor=none;fillColor=none;align=left;verticalAlign=middle;spacingLeft=4;spacingRight=4;overflow=hidden;rotatable=0;points=[[0,0.5],[1,0.5]];portConstraint=eastwest;" vertex="1" parent="180">
                    <mxGeometry y="120" width="350" height="20" as="geometry"/>
                </mxCell>
                <mxCell id="191" value="to: GlobalState*" style="text;html=1;strokeColor=none;fillColor=none;align=left;verticalAlign=middle;spacingLeft=4;spacingRight=4;overflow=hidden;rotatable=0;points=[[0,0.5],[1,0.5]];portConstraint=eastwest;" vertex="1" parent="180">
                    <mxGeometry y="140" width="350" height="20" as="geometry"/>
                </mxCell>
                <mxCell id="192" value="localTransitions: set&amp;lt;LocalTransition*&amp;gt;" style="text;html=1;strokeColor=none;fillColor=none;align=left;verticalAlign=middle;spacingLeft=4;spacingRight=4;overflow=hidden;rotatable=0;points=[[0,0.5],[1,0.5]];portConstraint=eastwest;" vertex="1" parent="180">
                    <mxGeometry y="160" width="350" height="20" as="geometry"/>
                </mxCell>
                <mxCell id="193" value="&amp;lt;&amp;lt;struct&amp;gt;&amp;gt;&lt;br&gt;&lt;b&gt;EpistemicClass&lt;/b&gt;" style="swimlane;fontStyle=0;align=center;verticalAlign=top;childLayout=stackLayout;horizontal=1;startSize=40;horizontalStack=0;resizeParent=1;resizeParentMax=0;resizeLast=0;collapsible=0;marginBottom=0;html=1;" vertex="1" parent="1">
                    <mxGeometry x="760" y="790" width="350" height="100" as="geometry"/>
                </mxCell>
                <mxCell id="195" value="hash: string" style="text;html=1;strokeColor=none;fillColor=none;align=left;verticalAlign=middle;spacingLeft=4;spacingRight=4;overflow=hidden;rotatable=0;points=[[0,0.5],[1,0.5]];portConstraint=eastwest;" vertex="1" parent="193">
                    <mxGeometry y="40" width="350" height="20" as="geometry"/>
                </mxCell>
                <mxCell id="196" value="globalStates: map&amp;lt;string, GlobalState*&amp;gt;" style="text;html=1;strokeColor=none;fillColor=none;align=left;verticalAlign=middle;spacingLeft=4;spacingRight=4;overflow=hidden;rotatable=0;points=[[0,0.5],[1,0.5]];portConstraint=eastwest;" vertex="1" parent="193">
                    <mxGeometry y="60" width="350" height="20" as="geometry"/>
                </mxCell>
                <mxCell id="200" value="fixedCoalitionTransition: GlobalTransition*" style="text;html=1;strokeColor=none;fillColor=none;align=left;verticalAlign=middle;spacingLeft=4;spacingRight=4;overflow=hidden;rotatable=0;points=[[0,0.5],[1,0.5]];portConstraint=eastwest;" vertex="1" parent="193">
                    <mxGeometry y="80" width="350" height="20" as="geometry"/>
                </mxCell>
                <mxCell id="201" value="&amp;lt;&amp;lt;enum&amp;gt;&amp;gt;&lt;br&gt;&lt;b&gt;ConditionOperator&lt;/b&gt;" style="swimlane;fontStyle=0;align=center;verticalAlign=top;childLayout=stackLayout;horizontal=1;startSize=40;horizontalStack=0;resizeParent=1;resizeParentMax=0;resizeLast=0;collapsible=0;marginBottom=0;html=1;" vertex="1" parent="1">
                    <mxGeometry x="1805" y="-690" width="120" height="80" as="geometry"/>
                </mxCell>
                <mxCell id="202" value="Equals" style="text;html=1;strokeColor=none;fillColor=none;align=left;verticalAlign=middle;spacingLeft=4;spacingRight=4;overflow=hidden;rotatable=0;points=[[0,0.5],[1,0.5]];portConstraint=eastwest;" vertex="1" parent="201">
                    <mxGeometry y="40" width="120" height="20" as="geometry"/>
                </mxCell>
                <mxCell id="203" value="NotEquals" style="text;html=1;strokeColor=none;fillColor=none;align=left;verticalAlign=middle;spacingLeft=4;spacingRight=4;overflow=hidden;rotatable=0;points=[[0,0.5],[1,0.5]];portConstraint=eastwest;" vertex="1" parent="201">
                    <mxGeometry y="60" width="120" height="20" as="geometry"/>
                </mxCell>
                <mxCell id="205" value="&amp;lt;&amp;lt;enum&amp;gt;&amp;gt;&lt;br&gt;&lt;b&gt;GlobalStateVerificationStatus&lt;/b&gt;" style="swimlane;fontStyle=0;align=center;verticalAlign=top;childLayout=stackLayout;horizontal=1;startSize=40;horizontalStack=0;resizeParent=1;resizeParentMax=0;resizeLast=0;collapsible=0;marginBottom=0;html=1;" vertex="1" parent="1">
                    <mxGeometry x="1755" y="430" width="180" height="120" as="geometry"/>
                </mxCell>
                <mxCell id="206" value="UNVERIFIED" style="text;html=1;strokeColor=none;fillColor=none;align=left;verticalAlign=middle;spacingLeft=4;spacingRight=4;overflow=hidden;rotatable=0;points=[[0,0.5],[1,0.5]];portConstraint=eastwest;" vertex="1" parent="205">
                    <mxGeometry y="40" width="180" height="20" as="geometry"/>
                </mxCell>
                <mxCell id="209" value="PENDING" style="text;html=1;strokeColor=none;fillColor=none;align=left;verticalAlign=middle;spacingLeft=4;spacingRight=4;overflow=hidden;rotatable=0;points=[[0,0.5],[1,0.5]];portConstraint=eastwest;" vertex="1" parent="205">
                    <mxGeometry y="60" width="180" height="20" as="geometry"/>
                </mxCell>
                <mxCell id="208" value="VERIFIED_OK" style="text;html=1;strokeColor=none;fillColor=none;align=left;verticalAlign=middle;spacingLeft=4;spacingRight=4;overflow=hidden;rotatable=0;points=[[0,0.5],[1,0.5]];portConstraint=eastwest;" vertex="1" parent="205">
                    <mxGeometry y="80" width="180" height="20" as="geometry"/>
                </mxCell>
                <mxCell id="207" value="VERIFIED_ERR" style="text;html=1;strokeColor=none;fillColor=none;align=left;verticalAlign=middle;spacingLeft=4;spacingRight=4;overflow=hidden;rotatable=0;points=[[0,0.5],[1,0.5]];portConstraint=eastwest;" vertex="1" parent="205">
                    <mxGeometry y="100" width="180" height="20" as="geometry"/>
                </mxCell>
                <mxCell id="210" value="&amp;lt;&amp;lt;enum&amp;gt;&amp;gt;&lt;br&gt;&lt;b&gt;VarAssignmentType&lt;/b&gt;" style="swimlane;fontStyle=0;align=center;verticalAlign=top;childLayout=stackLayout;horizontal=1;startSize=40;horizontalStack=0;resizeParent=1;resizeParentMax=0;resizeLast=0;collapsible=0;marginBottom=0;html=1;" vertex="1" parent="1">
                    <mxGeometry x="1805" y="-270" width="130" height="80" as="geometry"/>
                </mxCell>
                <mxCell id="211" value="FromVar" style="text;html=1;strokeColor=none;fillColor=none;align=left;verticalAlign=middle;spacingLeft=4;spacingRight=4;overflow=hidden;rotatable=0;points=[[0,0.5],[1,0.5]];portConstraint=eastwest;" vertex="1" parent="210">
                    <mxGeometry y="40" width="130" height="20" as="geometry"/>
                </mxCell>
                <mxCell id="212" value="FromValue" style="text;html=1;strokeColor=none;fillColor=none;align=left;verticalAlign=middle;spacingLeft=4;spacingRight=4;overflow=hidden;rotatable=0;points=[[0,0.5],[1,0.5]];portConstraint=eastwest;" vertex="1" parent="210">
                    <mxGeometry y="60" width="130" height="20" as="geometry"/>
                </mxCell>
                <mxCell id="213" value="&amp;lt;&amp;lt;struct&amp;gt;&amp;gt;&lt;br&gt;&lt;b&gt;Var&lt;/b&gt;" style="swimlane;fontStyle=0;align=center;verticalAlign=top;childLayout=stackLayout;horizontal=1;startSize=40;horizontalStack=0;resizeParent=1;resizeParentMax=0;resizeLast=0;collapsible=0;marginBottom=0;html=1;" vertex="1" parent="1">
                    <mxGeometry x="1990" y="-210" width="100" height="140" as="geometry"/>
                </mxCell>
                <mxCell id="218" value="name: string" style="text;html=1;strokeColor=none;fillColor=none;align=left;verticalAlign=middle;spacingLeft=4;spacingRight=4;overflow=hidden;rotatable=0;points=[[0,0.5],[1,0.5]];portConstraint=eastwest;" vertex="1" parent="213">
                    <mxGeometry y="40" width="100" height="20" as="geometry"/>
                </mxCell>
                <mxCell id="220" value="initialValue: int" style="text;html=1;strokeColor=none;fillColor=none;align=left;verticalAlign=middle;spacingLeft=4;spacingRight=4;overflow=hidden;rotatable=0;points=[[0,0.5],[1,0.5]];portConstraint=eastwest;" vertex="1" parent="213">
                    <mxGeometry y="60" width="100" height="20" as="geometry"/>
                </mxCell>
                <mxCell id="221" value="currentValue: int" style="text;html=1;strokeColor=none;fillColor=none;align=left;verticalAlign=middle;spacingLeft=4;spacingRight=4;overflow=hidden;rotatable=0;points=[[0,0.5],[1,0.5]];portConstraint=eastwest;" vertex="1" parent="213">
                    <mxGeometry y="80" width="100" height="20" as="geometry"/>
                </mxCell>
                <mxCell id="219" value="persistent: bool" style="text;html=1;strokeColor=none;fillColor=none;align=left;verticalAlign=middle;spacingLeft=4;spacingRight=4;overflow=hidden;rotatable=0;points=[[0,0.5],[1,0.5]];portConstraint=eastwest;" vertex="1" parent="213">
                    <mxGeometry y="100" width="100" height="20" as="geometry"/>
                </mxCell>
                <mxCell id="214" value="agent: *Agent" style="text;html=1;strokeColor=none;fillColor=none;align=left;verticalAlign=middle;spacingLeft=4;spacingRight=4;overflow=hidden;rotatable=0;points=[[0,0.5],[1,0.5]];portConstraint=eastwest;" vertex="1" parent="213">
                    <mxGeometry y="120" width="100" height="20" as="geometry"/>
                </mxCell>
                <mxCell id="222" value="&amp;lt;&amp;lt;struct&amp;gt;&amp;gt;&lt;br&gt;&lt;b&gt;Condition&lt;/b&gt;" style="swimlane;fontStyle=0;align=center;verticalAlign=top;childLayout=stackLayout;horizontal=1;startSize=40;horizontalStack=0;resizeParent=1;resizeParentMax=0;resizeLast=0;collapsible=0;marginBottom=0;html=1;" vertex="1" parent="1">
                    <mxGeometry x="1760" y="-560" width="210" height="100" as="geometry"/>
                </mxCell>
                <mxCell id="223" value="var: Var*" style="text;html=1;strokeColor=none;fillColor=none;align=left;verticalAlign=middle;spacingLeft=4;spacingRight=4;overflow=hidden;rotatable=0;points=[[0,0.5],[1,0.5]];portConstraint=eastwest;" vertex="1" parent="222">
                    <mxGeometry y="40" width="210" height="20" as="geometry"/>
                </mxCell>
                <mxCell id="224" value="conditionOperator: ConditionOperator" style="text;html=1;strokeColor=none;fillColor=none;align=left;verticalAlign=middle;spacingLeft=4;spacingRight=4;overflow=hidden;rotatable=0;points=[[0,0.5],[1,0.5]];portConstraint=eastwest;" vertex="1" parent="222">
                    <mxGeometry y="60" width="210" height="20" as="geometry"/>
                </mxCell>
                <mxCell id="225" value="comparedValue: int" style="text;html=1;strokeColor=none;fillColor=none;align=left;verticalAlign=middle;spacingLeft=4;spacingRight=4;overflow=hidden;rotatable=0;points=[[0,0.5],[1,0.5]];portConstraint=eastwest;" vertex="1" parent="222">
                    <mxGeometry y="80" width="210" height="20" as="geometry"/>
                </mxCell>
                <mxCell id="259" style="edgeStyle=elbowEdgeStyle;html=1;elbow=vertical;" edge="1" parent="1" source="228" target="73">
                    <mxGeometry relative="1" as="geometry"/>
                </mxCell>
                <mxCell id="228" value="&amp;lt;&amp;lt;struct&amp;gt;&amp;gt;&lt;br&gt;&lt;b&gt;Formula&lt;/b&gt;" style="swimlane;fontStyle=0;align=center;verticalAlign=top;childLayout=stackLayout;horizontal=1;startSize=40;horizontalStack=0;resizeParent=1;resizeParentMax=0;resizeLast=0;collapsible=0;marginBottom=0;html=1;" vertex="1" parent="1">
                    <mxGeometry x="1102" y="140" width="150" height="60" as="geometry"/>
                </mxCell>
                <mxCell id="229" value="coalition: set&amp;lt;Agent*&amp;gt;" style="text;html=1;strokeColor=none;fillColor=none;align=left;verticalAlign=middle;spacingLeft=4;spacingRight=4;overflow=hidden;rotatable=0;points=[[0,0.5],[1,0.5]];portConstraint=eastwest;" vertex="1" parent="228">
                    <mxGeometry y="40" width="150" height="20" as="geometry"/>
                </mxCell>
                <mxCell id="239" style="edgeStyle=elbowEdgeStyle;html=1;" edge="1" parent="1" source="2" target="138">
                    <mxGeometry relative="1" as="geometry">
                        <mxPoint x="950" y="140" as="sourcePoint"/>
                        <mxPoint x="1060" y="180" as="targetPoint"/>
                        <Array as="points">
                            <mxPoint x="950" y="240"/>
                            <mxPoint x="1070" y="20"/>
                            <mxPoint x="1100" y="240"/>
                        </Array>
                    </mxGeometry>
                </mxCell>
                <mxCell id="240" style="edgeStyle=elbowEdgeStyle;html=1;" edge="1" parent="1" source="2" target="228">
                    <mxGeometry relative="1" as="geometry">
                        <mxPoint x="940" y="170" as="sourcePoint"/>
                    </mxGeometry>
                </mxCell>
                <mxCell id="241" style="edgeStyle=orthogonalEdgeStyle;html=1;" edge="1" parent="1" source="2" target="164">
                    <mxGeometry relative="1" as="geometry">
                        <mxPoint x="1252" y="-361" as="sourcePoint"/>
                        <mxPoint x="1950" y="700" as="targetPoint"/>
                        <Array as="points">
                            <mxPoint x="1280" y="-200"/>
                            <mxPoint x="1280" y="370"/>
                        </Array>
                    </mxGeometry>
                </mxCell>
                <mxCell id="242" style="edgeStyle=elbowEdgeStyle;html=1;" edge="1" parent="1" source="2" target="154">
                    <mxGeometry relative="1" as="geometry"/>
                </mxCell>
                <mxCell id="243" style="edgeStyle=elbowEdgeStyle;html=1;elbow=vertical;" edge="1" parent="1" source="2" target="126">
                    <mxGeometry relative="1" as="geometry"/>
                </mxCell>
                <mxCell id="244" style="edgeStyle=elbowEdgeStyle;html=1;elbow=vertical;" edge="1" parent="1" source="2" target="88">
                    <mxGeometry relative="1" as="geometry"/>
                </mxCell>
                <mxCell id="245" style="edgeStyle=elbowEdgeStyle;html=1;" edge="1" parent="1" source="2" target="193">
                    <mxGeometry relative="1" as="geometry">
                        <mxPoint x="1830" y="1298" as="targetPoint"/>
                        <Array as="points">
                            <mxPoint x="850" y="300"/>
                            <mxPoint x="780" y="20"/>
                            <mxPoint x="800" y="210"/>
                            <mxPoint x="1010" y="340"/>
                        </Array>
                    </mxGeometry>
                </mxCell>
                <mxCell id="246" style="edgeStyle=elbowEdgeStyle;html=1;" edge="1" parent="1" source="33" target="88">
                    <mxGeometry relative="1" as="geometry">
                        <mxPoint x="1450" y="110" as="targetPoint"/>
                    </mxGeometry>
                </mxCell>
                <mxCell id="247" style="edgeStyle=elbowEdgeStyle;html=1;" edge="1" parent="1" source="58" target="88">
                    <mxGeometry relative="1" as="geometry"/>
                </mxCell>
                <mxCell id="248" style="edgeStyle=orthogonalEdgeStyle;html=1;" edge="1" parent="1" source="67" target="138">
                    <mxGeometry relative="1" as="geometry">
                        <Array as="points">
                            <mxPoint x="1200" y="378"/>
                        </Array>
                    </mxGeometry>
                </mxCell>
                <mxCell id="249" style="edgeStyle=elbowEdgeStyle;html=1;elbow=vertical;" edge="1" parent="1" source="119" target="213">
                    <mxGeometry relative="1" as="geometry"/>
                </mxCell>
                <mxCell id="250" style="edgeStyle=elbowEdgeStyle;html=1;elbow=vertical;" edge="1" parent="1" source="119" target="210">
                    <mxGeometry relative="1" as="geometry"/>
                </mxCell>
                <mxCell id="252" style="edgeStyle=elbowEdgeStyle;html=1;elbow=vertical;" edge="1" parent="1" source="193" target="180">
                    <mxGeometry relative="1" as="geometry"/>
                </mxCell>
                <mxCell id="253" style="edgeStyle=orthogonalEdgeStyle;html=1;" edge="1" parent="1" source="154" target="164">
                    <mxGeometry relative="1" as="geometry">
                        <mxPoint x="1970" y="730" as="targetPoint"/>
                        <Array as="points">
                            <mxPoint x="1260" y="100"/>
                            <mxPoint x="1260" y="390"/>
                        </Array>
                    </mxGeometry>
                </mxCell>
                <mxCell id="254" style="edgeStyle=elbowEdgeStyle;html=1;elbow=vertical;" edge="1" parent="1" source="154" target="180">
                    <mxGeometry relative="1" as="geometry">
                        <Array as="points">
                            <mxPoint x="640" y="650"/>
                            <mxPoint x="570" y="540"/>
                            <mxPoint x="520" y="510"/>
                            <mxPoint x="1140" y="540"/>
                        </Array>
                    </mxGeometry>
                </mxCell>
                <mxCell id="255" style="edgeStyle=elbowEdgeStyle;html=1;" edge="1" parent="1" source="154" target="193">
                    <mxGeometry relative="1" as="geometry">
                        <Array as="points">
                            <mxPoint x="560" y="360"/>
                        </Array>
                    </mxGeometry>
                </mxCell>
                <mxCell id="256" style="edgeStyle=elbowEdgeStyle;html=1;" edge="1" parent="1" source="222" target="201">
                    <mxGeometry relative="1" as="geometry"/>
                </mxCell>
                <mxCell id="257" style="edgeStyle=elbowEdgeStyle;html=1;" edge="1" parent="1" source="222" target="213">
                    <mxGeometry relative="1" as="geometry">
                        <Array as="points">
                            <mxPoint x="2040" y="-300"/>
                            <mxPoint x="2140" y="-310"/>
                            <mxPoint x="2330" y="-190"/>
                            <mxPoint x="2020" y="-480"/>
                            <mxPoint x="2200" y="-360"/>
                            <mxPoint x="2320" y="-270"/>
                        </Array>
                    </mxGeometry>
                </mxCell>
                <mxCell id="265" style="edgeStyle=none;html=1;" edge="1" parent="1" source="88" target="88">
                    <mxGeometry relative="1" as="geometry"/>
                </mxCell>
                <mxCell id="270" value="" style="endArrow=none;html=1;edgeStyle=orthogonalEdgeStyle;" edge="1" parent="1" source="88" target="73">
                    <mxGeometry width="50" height="50" relative="1" as="geometry">
                        <mxPoint x="1870" y="-170" as="sourcePoint"/>
                        <mxPoint x="1920" y="-220" as="targetPoint"/>
                        <Array as="points">
                            <mxPoint x="1750" y="-380"/>
                            <mxPoint x="1750" y="70"/>
                        </Array>
                    </mxGeometry>
                </mxCell>
                <mxCell id="271" value="" style="endArrow=none;html=1;edgeStyle=orthogonalEdgeStyle;" edge="1" parent="1" source="213" target="73">
                    <mxGeometry width="50" height="50" relative="1" as="geometry">
                        <mxPoint x="2330" y="-190" as="sourcePoint"/>
                        <mxPoint x="2380" y="-240" as="targetPoint"/>
                        <Array as="points">
                            <mxPoint x="2010" y="90"/>
                        </Array>
                    </mxGeometry>
                </mxCell>
                <mxCell id="274" value="" style="endArrow=none;html=1;edgeStyle=orthogonalEdgeStyle;" edge="1" parent="1" source="126" target="73">
                    <mxGeometry width="50" height="50" relative="1" as="geometry">
                        <mxPoint x="2020" y="60" as="sourcePoint"/>
                        <mxPoint x="1680" y="70" as="targetPoint"/>
                        <Array as="points">
                            <mxPoint x="1510" y="20"/>
                            <mxPoint x="1510" y="20"/>
                        </Array>
                    </mxGeometry>
                </mxCell>
                <mxCell id="275" value="" style="endArrow=none;html=1;edgeStyle=orthogonalEdgeStyle;" edge="1" parent="1" source="88" target="126">
                    <mxGeometry width="50" height="50" relative="1" as="geometry">
                        <mxPoint x="1570" y="-230" as="sourcePoint"/>
                        <mxPoint x="1660" y="-270" as="targetPoint"/>
                        <Array as="points">
                            <mxPoint x="1530" y="-320"/>
                            <mxPoint x="1530" y="-320"/>
                        </Array>
                    </mxGeometry>
                </mxCell>
                <mxCell id="277" style="edgeStyle=none;html=1;" edge="1" parent="1" source="126" target="126">
                    <mxGeometry relative="1" as="geometry"/>
                </mxCell>
                <mxCell id="282" value="" style="endArrow=none;html=1;edgeStyle=elbowEdgeStyle;elbow=vertical;" edge="1" parent="1" source="193" target="164">
                    <mxGeometry width="50" height="50" relative="1" as="geometry">
                        <mxPoint x="2120" y="880" as="sourcePoint"/>
                        <mxPoint x="2170" y="830" as="targetPoint"/>
                        <Array as="points">
                            <mxPoint x="1160" y="700"/>
                            <mxPoint x="1590" y="990"/>
                            <mxPoint x="980" y="730"/>
                            <mxPoint x="1340" y="670"/>
                            <mxPoint x="960" y="720"/>
                            <mxPoint x="1450" y="670"/>
                            <mxPoint x="960" y="710"/>
                        </Array>
                    </mxGeometry>
                </mxCell>
                <mxCell id="298" value="&amp;lt;&amp;lt;enum&amp;gt;&amp;gt;&lt;br&gt;&lt;b&gt;HistoryEntryType&lt;/b&gt;" style="swimlane;fontStyle=0;align=center;verticalAlign=top;childLayout=stackLayout;horizontal=1;startSize=40;horizontalStack=0;resizeParent=1;resizeParentMax=0;resizeLast=0;collapsible=0;marginBottom=0;html=1;" vertex="1" parent="1">
                    <mxGeometry x="1940" y="660" width="190" height="120" as="geometry"/>
                </mxCell>
                <mxCell id="299" value="DECISION" style="text;html=1;strokeColor=none;fillColor=none;align=left;verticalAlign=middle;spacingLeft=4;spacingRight=4;overflow=hidden;rotatable=0;points=[[0,0.5],[1,0.5]];portConstraint=eastwest;" vertex="1" parent="298">
                    <mxGeometry y="40" width="190" height="20" as="geometry"/>
                </mxCell>
                <mxCell id="300" value="STATE_STATUS" style="text;html=1;strokeColor=none;fillColor=none;align=left;verticalAlign=middle;spacingLeft=4;spacingRight=4;overflow=hidden;rotatable=0;points=[[0,0.5],[1,0.5]];portConstraint=eastwest;" vertex="1" parent="298">
                    <mxGeometry y="60" width="190" height="20" as="geometry"/>
                </mxCell>
                <mxCell id="301" value="CONTEXT" style="text;html=1;strokeColor=none;fillColor=none;align=left;verticalAlign=middle;spacingLeft=4;spacingRight=4;overflow=hidden;rotatable=0;points=[[0,0.5],[1,0.5]];portConstraint=eastwest;" vertex="1" parent="298">
                    <mxGeometry y="80" width="190" height="20" as="geometry"/>
                </mxCell>
                <mxCell id="302" value="MARK_DECISION_AS_INVALID" style="text;html=1;strokeColor=none;fillColor=none;align=left;verticalAlign=middle;spacingLeft=4;spacingRight=4;overflow=hidden;rotatable=0;points=[[0,0.5],[1,0.5]];portConstraint=eastwest;" vertex="1" parent="298">
                    <mxGeometry y="100" width="190" height="20" as="geometry"/>
                </mxCell>
                <mxCell id="321" style="edgeStyle=elbowEdgeStyle;html=1;elbow=vertical;" edge="1" parent="1" source="303" target="298">
                    <mxGeometry relative="1" as="geometry"/>
                </mxCell>
                <mxCell id="322" style="edgeStyle=orthogonalEdgeStyle;html=1;" edge="1" parent="1" source="303" target="164">
                    <mxGeometry relative="1" as="geometry">
                        <Array as="points">
                            <mxPoint x="1755" y="640"/>
                            <mxPoint x="1590" y="640"/>
                        </Array>
                    </mxGeometry>
                </mxCell>
                <mxCell id="323" style="edgeStyle=elbowEdgeStyle;html=1;elbow=vertical;" edge="1" parent="1" source="303" target="180">
                    <mxGeometry relative="1" as="geometry"/>
                </mxCell>
                <mxCell id="325" style="edgeStyle=elbowEdgeStyle;html=1;" edge="1" parent="1" source="303" target="205">
                    <mxGeometry relative="1" as="geometry">
                        <Array as="points">
                            <mxPoint x="1850" y="610"/>
                        </Array>
                    </mxGeometry>
                </mxCell>
                <mxCell id="303" value="&amp;lt;&amp;lt;struct&amp;gt;&amp;gt;&lt;br&gt;&lt;b&gt;HistoryEntry&lt;/b&gt;" style="swimlane;fontStyle=0;align=center;verticalAlign=top;childLayout=stackLayout;horizontal=1;startSize=40;horizontalStack=0;resizeParent=1;resizeParentMax=0;resizeLast=0;collapsible=0;marginBottom=0;html=1;" vertex="1" parent="1">
                    <mxGeometry x="1640" y="670" width="230" height="240" as="geometry"/>
                </mxCell>
                <mxCell id="315" value="type: HistoryEntryType" style="text;html=1;strokeColor=none;fillColor=none;align=left;verticalAlign=middle;spacingLeft=4;spacingRight=4;overflow=hidden;rotatable=0;points=[[0,0.5],[1,0.5]];portConstraint=eastwest;" vertex="1" parent="303">
                    <mxGeometry y="40" width="230" height="20" as="geometry"/>
                </mxCell>
                <mxCell id="316" value="globalState: GlobalState*" style="text;html=1;strokeColor=none;fillColor=none;align=left;verticalAlign=middle;spacingLeft=4;spacingRight=4;overflow=hidden;rotatable=0;points=[[0,0.5],[1,0.5]];portConstraint=eastwest;" vertex="1" parent="303">
                    <mxGeometry y="60" width="230" height="20" as="geometry"/>
                </mxCell>
                <mxCell id="317" value="decision: GlobalTransition*" style="text;html=1;strokeColor=none;fillColor=none;align=left;verticalAlign=middle;spacingLeft=4;spacingRight=4;overflow=hidden;rotatable=0;points=[[0,0.5],[1,0.5]];portConstraint=eastwest;" vertex="1" parent="303">
                    <mxGeometry y="80" width="230" height="20" as="geometry"/>
                </mxCell>
                <mxCell id="318" value="globalTransitionControlled: bool" style="text;html=1;strokeColor=none;fillColor=none;align=left;verticalAlign=middle;spacingLeft=4;spacingRight=4;overflow=hidden;rotatable=0;points=[[0,0.5],[1,0.5]];portConstraint=eastwest;" vertex="1" parent="303">
                    <mxGeometry y="100" width="230" height="20" as="geometry"/>
                </mxCell>
                <mxCell id="320" value="prevStatus: GlobalStateVerificationStatus" style="text;html=1;strokeColor=none;fillColor=none;align=left;verticalAlign=middle;spacingLeft=4;spacingRight=4;overflow=hidden;rotatable=0;points=[[0,0.5],[1,0.5]];portConstraint=eastwest;" vertex="1" parent="303">
                    <mxGeometry y="120" width="230" height="20" as="geometry"/>
                </mxCell>
                <mxCell id="324" value="newStatus: GlobalStateVerificationStatus" style="text;html=1;strokeColor=none;fillColor=none;align=left;verticalAlign=middle;spacingLeft=4;spacingRight=4;overflow=hidden;rotatable=0;points=[[0,0.5],[1,0.5]];portConstraint=eastwest;" vertex="1" parent="303">
                    <mxGeometry y="140" width="230" height="20" as="geometry"/>
                </mxCell>
                <mxCell id="319" value="depth: int" style="text;html=1;strokeColor=none;fillColor=none;align=left;verticalAlign=middle;spacingLeft=4;spacingRight=4;overflow=hidden;rotatable=0;points=[[0,0.5],[1,0.5]];portConstraint=eastwest;" vertex="1" parent="303">
                    <mxGeometry y="160" width="230" height="20" as="geometry"/>
                </mxCell>
                <mxCell id="304" value="prev: HistoryEntry*" style="text;html=1;strokeColor=none;fillColor=none;align=left;verticalAlign=middle;spacingLeft=4;spacingRight=4;overflow=hidden;rotatable=0;points=[[0,0.5],[1,0.5]];portConstraint=eastwest;" vertex="1" parent="303">
                    <mxGeometry y="180" width="230" height="20" as="geometry"/>
                </mxCell>
                <mxCell id="326" value="next: HistoryEntry*" style="text;html=1;strokeColor=none;fillColor=none;align=left;verticalAlign=middle;spacingLeft=4;spacingRight=4;overflow=hidden;rotatable=0;points=[[0,0.5],[1,0.5]];portConstraint=eastwest;" vertex="1" parent="303">
                    <mxGeometry y="200" width="230" height="20" as="geometry"/>
                </mxCell>
                <mxCell id="314" value="toString(): string" style="text;html=1;strokeColor=none;fillColor=none;align=left;verticalAlign=middle;spacingLeft=4;spacingRight=4;overflow=hidden;rotatable=0;points=[[0,0.5],[1,0.5]];portConstraint=eastwest;" vertex="1" parent="303">
                    <mxGeometry y="220" width="230" height="20" as="geometry"/>
                </mxCell>
                <mxCell id="328" style="edgeStyle=elbowEdgeStyle;html=1;" edge="1" parent="1" source="303" target="303">
                    <mxGeometry relative="1" as="geometry"/>
                </mxCell>
                <mxCell id="340" style="edgeStyle=orthogonalEdgeStyle;html=1;" edge="1" parent="1" source="329" target="303">
                    <mxGeometry relative="1" as="geometry">
                        <Array as="points">
                            <mxPoint x="1740" y="940"/>
                            <mxPoint x="1740" y="940"/>
                        </Array>
                    </mxGeometry>
                </mxCell>
                <mxCell id="329" value="&lt;b&gt;HistoryDbg&lt;/b&gt;" style="swimlane;fontStyle=0;align=center;verticalAlign=top;childLayout=stackLayout;horizontal=1;startSize=30;horizontalStack=0;resizeParent=1;resizeParentMax=0;resizeLast=0;collapsible=0;marginBottom=0;html=1;" vertex="1" parent="1">
                    <mxGeometry x="1600" y="950" width="270" height="178" as="geometry"/>
                </mxCell>
                <mxCell id="335" value="+entries: vector&amp;lt;pair&amp;lt;HistoryEntry*, char&amp;gt;&amp;gt;" style="text;html=1;strokeColor=none;fillColor=none;align=left;verticalAlign=middle;spacingLeft=4;spacingRight=4;overflow=hidden;rotatable=0;points=[[0,0.5],[1,0.5]];portConstraint=eastwest;" vertex="1" parent="329">
                    <mxGeometry y="30" width="270" height="20" as="geometry"/>
                </mxCell>
                <mxCell id="336" value="" style="line;strokeWidth=1;fillColor=none;align=left;verticalAlign=middle;spacingTop=-1;spacingLeft=3;spacingRight=3;rotatable=0;labelPosition=right;points=[];portConstraint=eastwest;" vertex="1" parent="329">
                    <mxGeometry y="50" width="270" height="8" as="geometry"/>
                </mxCell>
                <mxCell id="337" value="+HistoryDbg()" style="text;html=1;strokeColor=none;fillColor=none;align=left;verticalAlign=middle;spacingLeft=4;spacingRight=4;overflow=hidden;rotatable=0;points=[[0,0.5],[1,0.5]];portConstraint=eastwest;" vertex="1" parent="329">
                    <mxGeometry y="58" width="270" height="20" as="geometry"/>
                </mxCell>
                <mxCell id="341" value="+~HistoryDbg()" style="text;html=1;strokeColor=none;fillColor=none;align=left;verticalAlign=middle;spacingLeft=4;spacingRight=4;overflow=hidden;rotatable=0;points=[[0,0.5],[1,0.5]];portConstraint=eastwest;" vertex="1" parent="329">
                    <mxGeometry y="78" width="270" height="20" as="geometry"/>
                </mxCell>
                <mxCell id="343" value="+addEntry(entry: HistoryEntry*): void" style="text;html=1;strokeColor=none;fillColor=none;align=left;verticalAlign=middle;spacingLeft=4;spacingRight=4;overflow=hidden;rotatable=0;points=[[0,0.5],[1,0.5]];portConstraint=eastwest;" vertex="1" parent="329">
                    <mxGeometry y="98" width="270" height="20" as="geometry"/>
                </mxCell>
                <mxCell id="346" value="+markEntry(entry: HistoryEntry*, chr: char): void" style="text;html=1;strokeColor=none;fillColor=none;align=left;verticalAlign=middle;spacingLeft=4;spacingRight=4;overflow=hidden;rotatable=0;points=[[0,0.5],[1,0.5]];portConstraint=eastwest;" vertex="1" parent="329">
                    <mxGeometry y="118" width="270" height="20" as="geometry"/>
                </mxCell>
                <mxCell id="347" value="+print(prefix: string): void" style="text;html=1;strokeColor=none;fillColor=none;align=left;verticalAlign=middle;spacingLeft=4;spacingRight=4;overflow=hidden;rotatable=0;points=[[0,0.5],[1,0.5]];portConstraint=eastwest;" vertex="1" parent="329">
                    <mxGeometry y="138" width="270" height="20" as="geometry"/>
                </mxCell>
                <mxCell id="345" value="+cloneEntry(entry: HistoryEntry*): HistoryEntry*" style="text;html=1;strokeColor=none;fillColor=none;align=left;verticalAlign=middle;spacingLeft=4;spacingRight=4;overflow=hidden;rotatable=0;points=[[0,0.5],[1,0.5]];portConstraint=eastwest;" vertex="1" parent="329">
                    <mxGeometry y="158" width="270" height="20" as="geometry"/>
                </mxCell>
                <mxCell id="348" value="&amp;lt;&amp;lt;enum&amp;gt;&amp;gt;&lt;br&gt;&lt;b&gt;Mode&lt;/b&gt;" style="swimlane;fontStyle=0;align=center;verticalAlign=top;childLayout=stackLayout;horizontal=1;startSize=40;horizontalStack=0;resizeParent=1;resizeParentMax=0;resizeLast=0;collapsible=0;marginBottom=0;html=1;" vertex="1" parent="1">
                    <mxGeometry x="1945" y="800" width="180" height="100" as="geometry"/>
                </mxCell>
                <mxCell id="349" value="NORMAL" style="text;html=1;strokeColor=none;fillColor=none;align=left;verticalAlign=middle;spacingLeft=4;spacingRight=4;overflow=hidden;rotatable=0;points=[[0,0.5],[1,0.5]];portConstraint=eastwest;" vertex="1" parent="348">
                    <mxGeometry y="40" width="180" height="20" as="geometry"/>
                </mxCell>
                <mxCell id="350" value="REVERT" style="text;html=1;strokeColor=none;fillColor=none;align=left;verticalAlign=middle;spacingLeft=4;spacingRight=4;overflow=hidden;rotatable=0;points=[[0,0.5],[1,0.5]];portConstraint=eastwest;" vertex="1" parent="348">
                    <mxGeometry y="60" width="180" height="20" as="geometry"/>
                </mxCell>
                <mxCell id="351" value="RESTORE" style="text;html=1;strokeColor=none;fillColor=none;align=left;verticalAlign=middle;spacingLeft=4;spacingRight=4;overflow=hidden;rotatable=0;points=[[0,0.5],[1,0.5]];portConstraint=eastwest;" vertex="1" parent="348">
                    <mxGeometry y="80" width="180" height="20" as="geometry"/>
                </mxCell>
                <mxCell id="362" style="edgeStyle=orthogonalEdgeStyle;html=1;" edge="1" parent="1" source="353" target="348">
                    <mxGeometry relative="1" as="geometry">
                        <Array as="points">
                            <mxPoint x="2040" y="930"/>
                            <mxPoint x="2040" y="930"/>
                        </Array>
                    </mxGeometry>
                </mxCell>
                <mxCell id="379" style="edgeStyle=orthogonalEdgeStyle;html=1;" edge="1" parent="1" source="353" target="164">
                    <mxGeometry relative="1" as="geometry">
                        <Array as="points">
                            <mxPoint x="2170" y="400"/>
                        </Array>
                    </mxGeometry>
                </mxCell>
                <mxCell id="380" style="edgeStyle=orthogonalEdgeStyle;html=1;" edge="1" parent="1" source="353" target="303">
                    <mxGeometry relative="1" as="geometry">
                        <Array as="points">
                            <mxPoint x="1920" y="830"/>
                        </Array>
                    </mxGeometry>
                </mxCell>
                <mxCell id="381" style="edgeStyle=orthogonalEdgeStyle;html=1;" edge="1" parent="1" source="353" target="33">
                    <mxGeometry relative="1" as="geometry">
                        <Array as="points">
                            <mxPoint x="2230" y="-760"/>
                        </Array>
                    </mxGeometry>
                </mxCell>
                <mxCell id="385" style="edgeStyle=orthogonalEdgeStyle;html=1;" edge="1" parent="1" source="353" target="88">
                    <mxGeometry relative="1" as="geometry">
                        <Array as="points">
                            <mxPoint x="2210" y="-420"/>
                        </Array>
                    </mxGeometry>
                </mxCell>
                <mxCell id="386" style="edgeStyle=orthogonalEdgeStyle;html=1;" edge="1" parent="1" source="353" target="73">
                    <mxGeometry relative="1" as="geometry">
                        <Array as="points">
                            <mxPoint x="2190" y="110"/>
                        </Array>
                    </mxGeometry>
                </mxCell>
                <mxCell id="393" style="edgeStyle=orthogonalEdgeStyle;html=1;" edge="1" parent="1" source="353" target="180">
                    <mxGeometry relative="1" as="geometry">
                        <Array as="points">
                            <mxPoint x="1375" y="1150"/>
                        </Array>
                    </mxGeometry>
                </mxCell>
                <mxCell id="394" style="edgeStyle=orthogonalEdgeStyle;html=1;" edge="1" parent="1" source="353" target="205">
                    <mxGeometry relative="1" as="geometry">
                        <Array as="points">
                            <mxPoint x="2150" y="490"/>
                        </Array>
                    </mxGeometry>
                </mxCell>
                <mxCell id="353" value="&lt;b&gt;Verification&lt;/b&gt;" style="swimlane;fontStyle=0;align=center;verticalAlign=top;childLayout=stackLayout;horizontal=1;startSize=30;horizontalStack=0;resizeParent=1;resizeParentMax=0;resizeLast=0;collapsible=0;marginBottom=0;html=1;" vertex="1" parent="1">
                    <mxGeometry x="1900" y="950" width="760" height="538" as="geometry"/>
                </mxCell>
                <mxCell id="354" value="#mode: Mode" style="text;html=1;strokeColor=none;fillColor=none;align=left;verticalAlign=middle;spacingLeft=4;spacingRight=4;overflow=hidden;rotatable=0;points=[[0,0.5],[1,0.5]];portConstraint=eastwest;" vertex="1" parent="353">
                    <mxGeometry y="30" width="760" height="20" as="geometry"/>
                </mxCell>
                <mxCell id="374" value="#revertToGlobalState: GlobalState*" style="text;html=1;strokeColor=none;fillColor=none;align=left;verticalAlign=middle;spacingLeft=4;spacingRight=4;overflow=hidden;rotatable=0;points=[[0,0.5],[1,0.5]];portConstraint=eastwest;" vertex="1" parent="353">
                    <mxGeometry y="50" width="760" height="20" as="geometry"/>
                </mxCell>
                <mxCell id="376" value="#historyToRestore: stack&amp;lt;HistoryEntry*&amp;gt;" style="text;html=1;strokeColor=none;fillColor=none;align=left;verticalAlign=middle;spacingLeft=4;spacingRight=4;overflow=hidden;rotatable=0;points=[[0,0.5],[1,0.5]];portConstraint=eastwest;" vertex="1" parent="353">
                    <mxGeometry y="70" width="760" height="20" as="geometry"/>
                </mxCell>
                <mxCell id="375" value="#generator: GlobalModelGenerator*" style="text;html=1;strokeColor=none;fillColor=none;align=left;verticalAlign=middle;spacingLeft=4;spacingRight=4;overflow=hidden;rotatable=0;points=[[0,0.5],[1,0.5]];portConstraint=eastwest;" vertex="1" parent="353">
                    <mxGeometry y="90" width="760" height="20" as="geometry"/>
                </mxCell>
                <mxCell id="378" value="#seleneFormula: SeleneFormula*" style="text;html=1;strokeColor=none;fillColor=none;align=left;verticalAlign=middle;spacingLeft=4;spacingRight=4;overflow=hidden;rotatable=0;points=[[0,0.5],[1,0.5]];portConstraint=eastwest;" vertex="1" parent="353">
                    <mxGeometry y="110" width="760" height="20" as="geometry"/>
                </mxCell>
                <mxCell id="377" value="#historyStart: HistoryEntry*" style="text;html=1;strokeColor=none;fillColor=none;align=left;verticalAlign=middle;spacingLeft=4;spacingRight=4;overflow=hidden;rotatable=0;points=[[0,0.5],[1,0.5]];portConstraint=eastwest;" vertex="1" parent="353">
                    <mxGeometry y="130" width="760" height="20" as="geometry"/>
                </mxCell>
                <mxCell id="383" value="#historyEnd: HistoryEntry*" style="text;html=1;strokeColor=none;fillColor=none;align=left;verticalAlign=middle;spacingLeft=4;spacingRight=4;overflow=hidden;rotatable=0;points=[[0,0.5],[1,0.5]];portConstraint=eastwest;" vertex="1" parent="353">
                    <mxGeometry y="150" width="760" height="20" as="geometry"/>
                </mxCell>
                <mxCell id="355" value="" style="line;strokeWidth=1;fillColor=none;align=left;verticalAlign=middle;spacingTop=-1;spacingLeft=3;spacingRight=3;rotatable=0;labelPosition=right;points=[];portConstraint=eastwest;" vertex="1" parent="353">
                    <mxGeometry y="170" width="760" height="8" as="geometry"/>
                </mxCell>
                <mxCell id="356" value="+Verification(generator: GlobalModelGenerator*)" style="text;html=1;strokeColor=none;fillColor=none;align=left;verticalAlign=middle;spacingLeft=4;spacingRight=4;overflow=hidden;rotatable=0;points=[[0,0.5],[1,0.5]];portConstraint=eastwest;" vertex="1" parent="353">
                    <mxGeometry y="178" width="760" height="20" as="geometry"/>
                </mxCell>
                <mxCell id="366" value="+~Verification()" style="text;html=1;strokeColor=none;fillColor=none;align=left;verticalAlign=middle;spacingLeft=4;spacingRight=4;overflow=hidden;rotatable=0;points=[[0,0.5],[1,0.5]];portConstraint=eastwest;" vertex="1" parent="353">
                    <mxGeometry y="198" width="760" height="20" as="geometry"/>
                </mxCell>
                <mxCell id="367" value="+verify(): bool" style="text;html=1;strokeColor=none;fillColor=none;align=left;verticalAlign=middle;spacingLeft=4;spacingRight=4;overflow=hidden;rotatable=0;points=[[0,0.5],[1,0.5]];portConstraint=eastwest;" vertex="1" parent="353">
                    <mxGeometry y="218" width="760" height="20" as="geometry"/>
                </mxCell>
                <mxCell id="368" value="#verifyLocalStates(localStates: set&amp;lt;LocalState*&amp;gt;*): bool" style="text;html=1;strokeColor=none;fillColor=none;align=left;verticalAlign=middle;spacingLeft=4;spacingRight=4;overflow=hidden;rotatable=0;points=[[0,0.5],[1,0.5]];portConstraint=eastwest;" vertex="1" parent="353">
                    <mxGeometry y="238" width="760" height="20" as="geometry"/>
                </mxCell>
                <mxCell id="369" value="#verifyGlobalState(globalState: GlobalState*, depth: int): bool" style="text;html=1;strokeColor=none;fillColor=none;align=left;verticalAlign=middle;spacingLeft=4;spacingRight=4;overflow=hidden;rotatable=0;points=[[0,0.5],[1,0.5]];portConstraint=eastwest;" vertex="1" parent="353">
                    <mxGeometry y="258" width="760" height="20" as="geometry"/>
                </mxCell>
                <mxCell id="372" value="#isGlobalTransitionControlledByCoalition(globalTransition: GlobalTransition*): bool" style="text;html=1;strokeColor=none;fillColor=none;align=left;verticalAlign=middle;spacingLeft=4;spacingRight=4;overflow=hidden;rotatable=0;points=[[0,0.5],[1,0.5]];portConstraint=eastwest;" vertex="1" parent="353">
                    <mxGeometry y="278" width="760" height="20" as="geometry"/>
                </mxCell>
                <mxCell id="373" value="#isAgentInCoalition(agent: Agent*): bool" style="text;html=1;strokeColor=none;fillColor=none;align=left;verticalAlign=middle;spacingLeft=4;spacingRight=4;overflow=hidden;rotatable=0;points=[[0,0.5],[1,0.5]];portConstraint=eastwest;" vertex="1" parent="353">
                    <mxGeometry y="298" width="760" height="20" as="geometry"/>
                </mxCell>
                <mxCell id="371" value="#getEpistemicClassForGlobalState(globalState: GlobalState*): EpistemicClass*" style="text;html=1;strokeColor=none;fillColor=none;align=left;verticalAlign=middle;spacingLeft=4;spacingRight=4;overflow=hidden;rotatable=0;points=[[0,0.5],[1,0.5]];portConstraint=eastwest;" vertex="1" parent="353">
                    <mxGeometry y="318" width="760" height="20" as="geometry"/>
                </mxCell>
                <mxCell id="370" value="#areGlobalStatesInTheSameEpistemicClass(globalState1: GlobalState*, globalState2: GlobalState*): bool" style="text;html=1;strokeColor=none;fillColor=none;align=left;verticalAlign=middle;spacingLeft=4;spacingRight=4;overflow=hidden;rotatable=0;points=[[0,0.5],[1,0.5]];portConstraint=eastwest;" vertex="1" parent="353">
                    <mxGeometry y="338" width="760" height="20" as="geometry"/>
                </mxCell>
                <mxCell id="365" value="#addHistoryDecision(globalState: GlobalState*, ecision: GlobalTransition*): void" style="text;html=1;strokeColor=none;fillColor=none;align=left;verticalAlign=middle;spacingLeft=4;spacingRight=4;overflow=hidden;rotatable=0;points=[[0,0.5],[1,0.5]];portConstraint=eastwest;" vertex="1" parent="353">
                    <mxGeometry y="358" width="760" height="20" as="geometry"/>
                </mxCell>
                <mxCell id="392" value="#addHistoryStateStatus(globalState: GlobalState*, prevStatus: GlobalStateVerificationStatus, newStatus: GlobalStateVerificationStatus): void" style="text;html=1;strokeColor=none;fillColor=none;align=left;verticalAlign=middle;spacingLeft=4;spacingRight=4;overflow=hidden;rotatable=0;points=[[0,0.5],[1,0.5]];portConstraint=eastwest;" vertex="1" parent="353">
                    <mxGeometry y="378" width="760" height="20" as="geometry"/>
                </mxCell>
                <mxCell id="391" value="#addHistoryContent(globalState: GlobalState*, depth: int, decision: GlobalTransition*, globalTransitionControlled: bool): void" style="text;html=1;strokeColor=none;fillColor=none;align=left;verticalAlign=middle;spacingLeft=4;spacingRight=4;overflow=hidden;rotatable=0;points=[[0,0.5],[1,0.5]];portConstraint=eastwest;" vertex="1" parent="353">
                    <mxGeometry y="398" width="760" height="20" as="geometry"/>
                </mxCell>
                <mxCell id="389" value="#addHistoryMarkDecisionAsInvalid(globalState: GlobalState*, decision: GlobalTransition): void" style="text;html=1;strokeColor=none;fillColor=none;align=left;verticalAlign=middle;spacingLeft=4;spacingRight=4;overflow=hidden;rotatable=0;points=[[0,0.5],[1,0.5]];portConstraint=eastwest;" vertex="1" parent="353">
                    <mxGeometry y="418" width="760" height="20" as="geometry"/>
                </mxCell>
                <mxCell id="390" value="#newHistoryMarkDecisionAsInvalid(globalState:GlobalState*, decision: GlobalTransition*): HistoryEntry*" style="text;html=1;strokeColor=none;fillColor=none;align=left;verticalAlign=middle;spacingLeft=4;spacingRight=4;overflow=hidden;rotatable=0;points=[[0,0.5],[1,0.5]];portConstraint=eastwest;" vertex="1" parent="353">
                    <mxGeometry y="438" width="760" height="20" as="geometry"/>
                </mxCell>
                <mxCell id="395" value="#revertLastDecision(depth: int): bool" style="text;html=1;strokeColor=none;fillColor=none;align=left;verticalAlign=middle;spacingLeft=4;spacingRight=4;overflow=hidden;rotatable=0;points=[[0,0.5],[1,0.5]];portConstraint=eastwest;" vertex="1" parent="353">
                    <mxGeometry y="458" width="760" height="20" as="geometry"/>
                </mxCell>
                <mxCell id="396" value="#undoLastHistoryEntry(freeMemory: bool): void" style="text;html=1;strokeColor=none;fillColor=none;align=left;verticalAlign=middle;spacingLeft=4;spacingRight=4;overflow=hidden;rotatable=0;points=[[0,0.5],[1,0.5]];portConstraint=eastwest;" vertex="1" parent="353">
                    <mxGeometry y="478" width="760" height="20" as="geometry"/>
                </mxCell>
                <mxCell id="397" value="#undoHistoryUntil(historyEntry: HistoryEntry*, inclusive: bool, depth: int): void" style="text;html=1;strokeColor=none;fillColor=none;align=left;verticalAlign=middle;spacingLeft=4;spacingRight=4;overflow=hidden;rotatable=0;points=[[0,0.5],[1,0.5]];portConstraint=eastwest;" vertex="1" parent="353">
                    <mxGeometry y="498" width="760" height="20" as="geometry"/>
                </mxCell>
                <mxCell id="388" value="#printCurrentHistory(depth: int): void" style="text;html=1;strokeColor=none;fillColor=none;align=left;verticalAlign=middle;spacingLeft=4;spacingRight=4;overflow=hidden;rotatable=0;points=[[0,0.5],[1,0.5]];portConstraint=eastwest;" vertex="1" parent="353">
                    <mxGeometry y="518" width="760" height="20" as="geometry"/>
                </mxCell>
                <mxCell id="364" style="edgeStyle=orthogonalEdgeStyle;html=1;" edge="1" parent="1" source="353" target="2">
                    <mxGeometry relative="1" as="geometry">
                        <Array as="points">
                            <mxPoint x="380" y="1190"/>
                        </Array>
                    </mxGeometry>
                </mxCell>
                <mxCell id="387" style="edgeStyle=orthogonalEdgeStyle;html=1;" edge="1" parent="1" source="353" target="193">
                    <mxGeometry relative="1" as="geometry">
                        <Array as="points">
                            <mxPoint x="935" y="1170"/>
                        </Array>
                    </mxGeometry>
                </mxCell>
            </root>
        </mxGraphModel>
    </diagram>
</mxfile>